<svg width="34" height="33" viewBox="0 0 34 33" fill="none" xmlns="http://www.w3.org/2000/svg">
<mask id="mask0_45_614" style="mask-type:alpha" maskUnits="userSpaceOnUse" x="0" y="0" width="34" height="34">
<circle cx="16.9831" cy="16.575" r="16.4256" fill="#D9D9D9"/>
</mask>
<g mask="url(#mask0_45_614)">
<path d="M6.47033 27.1976L13.3813 12.7973L28.067 6.02063L21.1561 20.421L6.47033 27.1976ZM17.2687 14.7032C16.7532 14.7032 16.2588 14.904 15.8943 15.2614C15.5297 15.6189 15.325 16.1036 15.325 16.6091C15.325 17.1146 15.5297 17.5994 15.8943 17.9568C16.2588 18.3143 16.7532 18.5151 17.2687 18.5151C17.7842 18.5151 18.2786 18.3143 18.6431 17.9568C19.0076 17.5994 19.2124 17.1146 19.2124 16.6091C19.2124 16.1036 19.0076 15.6189 18.6431 15.2614C18.2786 14.904 17.7842 14.7032 17.2687 14.7032ZM17.2687 -4.56787C20.1048 -4.56787 22.9131 -4.02011 25.5334 -2.95587C28.1536 -1.89162 30.5344 -0.331738 32.5398 1.63473C34.5452 3.6012 36.1361 5.93573 37.2214 8.50504C38.3067 11.0744 38.8653 13.8281 38.8653 16.6091C38.8653 22.2256 36.59 27.6121 32.5398 31.5835C28.4897 35.555 22.9965 37.7861 17.2687 37.7861C14.4326 37.7861 11.6242 37.2384 9.00398 36.1741C6.38375 35.1099 4.00295 33.55 1.99751 31.5835C-2.05265 27.6121 -4.328 22.2256 -4.328 16.6091C-4.328 10.9926 -2.05265 5.60619 1.99751 1.63473C6.04768 -2.33673 11.5409 -4.56787 17.2687 -4.56787ZM17.2687 -0.332471C12.6864 -0.332471 8.29187 1.45244 5.05174 4.62961C1.81162 7.80678 -0.00866938 12.1159 -0.00866938 16.6091C-0.00866938 21.1023 1.81162 25.4115 5.05174 28.5887C8.29187 31.7658 12.6864 33.5507 17.2687 33.5507C21.8509 33.5507 26.2455 31.7658 29.4856 28.5887C32.7257 25.4115 34.546 21.1023 34.546 16.6091C34.546 12.1159 32.7257 7.80678 29.4856 4.62961C26.2455 1.45244 21.8509 -0.332471 17.2687 -0.332471Z" fill="#02C1E3"/>
</g>
</svg>
