<svg width="16" height="17" viewBox="0 0 16 17" fill="none" xmlns="http://www.w3.org/2000/svg">
<path d="M8.1494 0.375488C4.17804 0.375488 0.961426 1.9838 0.961426 3.96947C0.961426 5.95515 4.17804 7.56346 8.1494 7.56346C12.1207 7.56346 15.3374 5.95515 15.3374 3.96947C15.3374 1.9838 12.1207 0.375488 8.1494 0.375488ZM0.961426 5.76647V8.46195C0.961426 10.4476 4.17804 12.0559 8.1494 12.0559C12.1207 12.0559 15.3374 10.4476 15.3374 8.46195V5.76647C15.3374 7.75214 12.1207 9.36045 8.1494 9.36045C4.17804 9.36045 0.961426 7.75214 0.961426 5.76647ZM0.961426 10.2589V12.9544C0.961426 14.9401 4.17804 16.5484 8.1494 16.5484C12.1207 16.5484 15.3374 14.9401 15.3374 12.9544V10.2589C15.3374 12.2446 12.1207 13.8529 8.1494 13.8529C4.17804 13.8529 0.961426 12.2446 0.961426 10.2589Z" fill="#02C1E3"/>
</svg>
