<svg width="92" height="92" viewBox="0 0 92 92" fill="none" xmlns="http://www.w3.org/2000/svg">
<rect x="0.492188" y="0.342163" width="91.3229" height="91.3229" rx="5.1305" fill="#333B4A"/>
<circle cx="45.6405" cy="46.5165" r="25.6525" stroke="white" stroke-width="3.0783"/>
<path d="M46.1285 55.3176C45.2074 55.3118 44.3183 55.1573 43.4613 54.8541C42.6101 54.551 41.8463 54.0583 41.17 53.3762C40.4937 52.6941 39.9574 51.7904 39.5609 50.6652C39.1703 49.54 38.975 48.1582 38.975 46.52C38.9808 45.0158 39.1528 43.672 39.4909 42.4884C39.8349 41.2991 40.3246 40.2905 40.9601 39.4626C41.6014 38.6347 42.3681 38.0051 43.2601 37.5737C44.1521 37.1364 45.152 36.9178 46.2597 36.9178C47.4549 36.9178 48.5101 37.151 49.4255 37.6174C50.3408 38.078 51.0754 38.7047 51.6292 39.4976C52.1889 40.2905 52.5271 41.1796 52.6437 42.1649H48.9095C48.7637 41.5411 48.4577 41.0513 47.9913 40.6957C47.5248 40.34 46.9477 40.1622 46.2597 40.1622C45.0937 40.1622 44.2075 40.6695 43.6012 41.6839C43.0007 42.6983 42.6946 44.0772 42.6829 45.8204H42.8054C43.0735 45.2898 43.435 44.838 43.8898 44.4649C44.3503 44.0859 44.8721 43.7973 45.4552 43.5991C46.044 43.395 46.6649 43.293 47.3179 43.293C48.379 43.293 49.3234 43.5437 50.1513 44.0451C50.9792 44.5406 51.6322 45.2228 52.1102 46.0915C52.5883 46.9601 52.8273 47.9542 52.8273 49.0736C52.8273 50.2862 52.5446 51.3648 51.9791 52.3093C51.4194 53.2538 50.6352 53.9942 49.6266 54.5306C48.6238 55.0611 47.4578 55.3234 46.1285 55.3176ZM46.111 52.3443C46.6941 52.3443 47.2158 52.2043 47.6764 51.9245C48.137 51.6446 48.4985 51.2657 48.7608 50.7876C49.0232 50.3095 49.1544 49.7732 49.1544 49.1785C49.1544 48.5838 49.0232 48.0504 48.7608 47.5781C48.5043 47.1059 48.1487 46.7299 47.6939 46.45C47.2392 46.1702 46.7203 46.0302 46.1373 46.0302C45.7 46.0302 45.2948 46.1119 44.9217 46.2751C44.5544 46.4384 44.2308 46.6657 43.951 46.9572C43.677 47.2487 43.4613 47.5869 43.3038 47.9717C43.1464 48.3506 43.0677 48.7558 43.0677 49.1873C43.0677 49.7644 43.1989 50.2921 43.4613 50.7701C43.7294 51.2482 44.0909 51.6301 44.5457 51.9157C45.0062 52.2014 45.528 52.3443 46.111 52.3443Z" fill="white"/>
</svg>
