<svg width="113" height="100" viewBox="0 0 113 100" fill="none" xmlns="http://www.w3.org/2000/svg">
<path fill-rule="evenodd" clip-rule="evenodd" d="M63.3622 41.2094C62.225 40.5609 60.935 40.2195 59.6219 40.2195C58.3089 40.2195 57.0189 40.5609 55.8817 41.2094L21.4694 60.8391C20.9006 61.1632 20.4281 61.6295 20.0996 62.1913C19.7711 62.753 19.5982 63.3903 19.5982 64.0391C19.5982 64.6878 19.7711 65.3251 20.0996 65.8869C20.4281 66.4486 20.9006 66.915 21.4694 67.2391L55.8817 86.8688C57.0189 87.5173 58.3089 87.8587 59.6219 87.8587C60.935 87.8587 62.225 87.5173 63.3622 86.8688L97.7753 67.2391C98.3438 66.9147 98.8158 66.4482 99.144 65.8865C99.4722 65.3248 99.6449 64.6877 99.6449 64.0391C99.6449 63.3905 99.4722 62.7534 99.144 62.1917C98.8158 61.63 98.3438 61.1635 97.7753 60.8391L63.3622 41.2094Z" fill="url(#paint0_linear_19_149)"/>
<path fill-rule="evenodd" clip-rule="evenodd" d="M63.3622 41.2094L97.7753 60.8391C98.3438 61.1635 98.8158 61.63 99.144 62.1917C99.4722 62.7534 99.6449 63.3905 99.6449 64.0391C99.6449 64.6877 99.4722 65.3248 99.144 65.8865C98.8158 66.4482 98.3438 66.9147 97.7753 67.2391L63.3622 86.8688C62.225 87.5173 60.935 87.8587 59.6219 87.8587C58.3089 87.8587 57.0189 87.5173 55.8817 86.8688L21.4694 67.2391C20.9006 66.915 20.4281 66.4486 20.0996 65.8869C19.7711 65.3251 19.5982 64.6878 19.5982 64.0391C19.5982 63.3903 19.7711 62.753 20.0996 62.1913C20.4281 61.6295 20.9006 61.1632 21.4694 60.8391L55.8817 41.2094C57.0189 40.5609 58.3089 40.2195 59.6219 40.2195C60.935 40.2195 62.225 40.5609 63.3622 41.2094ZM63.1285 41.6096C62.0624 41.0013 60.853 40.6811 59.6219 40.6811C58.3909 40.6811 57.1815 41.0013 56.1154 41.6096L21.7031 61.2393C21.2056 61.523 20.7925 61.9311 20.5053 62.4226C20.2181 62.9141 20.0669 63.4716 20.0669 64.0391C20.0669 64.6066 20.2181 65.1641 20.5053 65.6556C20.7925 66.147 21.2056 66.5552 21.7031 66.8389L56.1154 86.4686C57.1815 87.0769 58.3909 87.3971 59.6219 87.3971C60.853 87.3971 62.0624 87.0769 63.1285 86.4686L97.5408 66.8389C98.0385 66.5553 98.4518 66.1473 98.7392 65.6558C99.0265 65.1643 99.1778 64.6067 99.1778 64.0391C99.1778 63.4715 99.0265 62.9139 98.7392 62.4224C98.4518 61.9309 98.0385 61.5228 97.5408 61.2393L63.1285 41.6096Z" fill="white" fill-opacity="0.25"/>
<path fill-rule="evenodd" clip-rule="evenodd" d="M63.3622 32.1284C62.225 31.4798 60.935 31.1384 59.6219 31.1384C58.3089 31.1384 57.0189 31.4798 55.8817 32.1284L21.4694 51.758C20.9006 52.0821 20.4281 52.5485 20.0996 53.1102C19.7711 53.672 19.5982 54.3093 19.5982 54.958C19.5982 55.6068 19.7711 56.2441 20.0996 56.8058C20.4281 57.3676 20.9006 57.834 21.4694 58.158L55.8817 77.7877C57.0189 78.4362 58.3089 78.7776 59.6219 78.7776C60.935 78.7776 62.225 78.4362 63.3622 77.7877L97.7753 58.158C98.3438 57.8336 98.8158 57.3672 99.144 56.8054C99.4722 56.2437 99.6449 55.6066 99.6449 54.958C99.6449 54.3095 99.4722 53.6723 99.144 53.1106C98.8158 52.5489 98.3438 52.0824 97.7753 51.758L63.3622 32.1284Z" fill="url(#paint1_linear_19_149)"/>
<path fill-rule="evenodd" clip-rule="evenodd" d="M63.3622 32.1284L97.7753 51.758C98.3438 52.0824 98.8158 52.5489 99.144 53.1106C99.4722 53.6723 99.6449 54.3095 99.6449 54.958C99.6449 55.6066 99.4722 56.2437 99.144 56.8054C98.8158 57.3672 98.3438 57.8336 97.7753 58.158L63.3622 77.7877C62.225 78.4362 60.935 78.7776 59.6219 78.7776C58.3089 78.7776 57.0189 78.4362 55.8817 77.7877L21.4694 58.158C20.9006 57.834 20.4281 57.3676 20.0996 56.8058C19.7711 56.2441 19.5982 55.6068 19.5982 54.958C19.5982 54.3093 19.7711 53.672 20.0996 53.1102C20.4281 52.5485 20.9006 52.0821 21.4694 51.758L55.8817 32.1284C57.0189 31.4798 58.3089 31.1384 59.6219 31.1384C60.935 31.1384 62.225 31.4798 63.3622 32.1284ZM63.1285 32.5285C62.0624 31.9203 60.853 31.6 59.6219 31.6C58.3909 31.6 57.1815 31.9203 56.1154 32.5285L21.7031 52.1582C21.2056 52.442 20.7925 52.8501 20.5053 53.3415C20.2181 53.833 20.0669 54.3905 20.0669 54.958C20.0669 55.5255 20.2181 56.0831 20.5053 56.5745C20.7925 57.066 21.2056 57.4741 21.7031 57.7578L56.1154 77.3875C57.1815 77.9958 58.3909 78.316 59.6219 78.316C60.853 78.316 62.0624 77.9958 63.1285 77.3875L97.5408 57.7578C98.0385 57.4743 98.4518 57.0662 98.7392 56.5747C99.0265 56.0832 99.1778 55.5256 99.1778 54.958C99.1778 54.3904 99.0265 53.8328 98.7392 53.3413C98.4518 52.8498 98.0385 52.4418 97.5408 52.1582L63.1285 32.5285Z" fill="white" fill-opacity="0.25"/>
<path fill-rule="evenodd" clip-rule="evenodd" d="M-136.272 19.671C-135.835 19.2387 -135.316 18.8958 -134.744 18.6618C-134.172 18.4279 -133.56 18.3075 -132.941 18.3075H-125.275C-124.531 18.3075 -123.817 18.5995 -123.291 19.1192C-122.765 19.639 -122.469 20.3439 -122.469 21.0789V88.1225C-122.469 88.4866 -122.542 88.847 -122.683 89.1834C-122.823 89.5198 -123.03 89.8254 -123.291 90.0828C-123.551 90.3402 -123.86 90.5443 -124.201 90.6835C-124.541 90.8227 -124.906 90.8942 -125.275 90.894H-144.959C-145.703 90.894 -146.416 90.602 -146.942 90.0822C-147.469 89.5625 -147.764 88.8576 -147.764 88.1225V32.173C-147.764 31.4376 -147.469 30.7327 -146.943 30.2126L-136.272 19.671ZM-77.5411 90.5614C-77.9646 90.372 -78.4296 90.2906 -78.8932 90.3248C-79.3568 90.359 -79.8044 90.5076 -80.1948 90.757C-80.5853 91.0065 -80.9061 91.3487 -81.1279 91.7524C-81.3497 92.1561 -81.4655 92.6083 -81.4645 93.0677C-81.4579 109.454 -81.3401 165.481 -81.3121 178.628C-81.3117 178.992 -81.384 179.353 -81.5247 179.69C-81.6655 180.027 -81.872 180.333 -82.1325 180.591C-82.393 180.848 -82.7023 181.053 -83.0428 181.193C-83.3834 181.333 -83.7484 181.405 -84.1172 181.405H-103.795C-104.163 181.405 -104.528 181.333 -104.869 181.194C-105.209 181.055 -105.518 180.851 -105.779 180.593C-106.039 180.336 -106.246 180.03 -106.387 179.694C-106.528 179.357 -106.6 178.997 -106.6 178.633L-106.534 21.0789C-106.533 20.3442 -106.237 19.6398 -105.711 19.1204C-105.185 18.6011 -104.472 18.3093 -103.729 18.3093H-90.999C-90.4944 18.3093 -89.9991 18.4437 -89.5653 18.6985C-89.1315 18.9532 -88.7753 19.3189 -88.5343 19.7569L-87.7348 21.211C-87.5435 21.5589 -87.2789 21.8622 -86.9589 22.1006C-86.6389 22.3389 -86.271 22.5068 -85.8798 22.5928C-85.4886 22.6789 -85.0834 22.6811 -84.6913 22.5994C-84.2991 22.5177 -83.9293 22.3539 -83.6066 22.1191C-78.0011 18.1606 -71.1595 15.9287 -63.6025 15.9287C-41.1308 15.9287 -25.08 31.978 -25.08 54.6104C-25.08 77.2262 -41.1308 93.3513 -63.6025 93.3513C-68.6162 93.3513 -73.311 92.3702 -77.5411 90.5614ZM-66.9901 71.2242C-57.5622 71.2242 -50.5307 64.1432 -50.5307 54.6012C-50.5307 45.0582 -57.5033 37.9772 -66.9901 37.9772C-76.4761 37.9772 -83.4468 45.0582 -83.4468 54.6012C-83.4468 64.1432 -76.4761 71.2242 -66.9901 71.2242ZM-148.529 106.682C-132.795 106.682 -122.34 118.799 -122.34 135.893V178.635C-122.34 179.37 -122.635 180.075 -123.161 180.594C-123.687 181.114 -124.401 181.406 -125.145 181.406H-144.829C-145.573 181.406 -146.286 181.114 -146.812 180.594C-147.339 180.075 -147.634 179.37 -147.634 178.635V138.984C-147.634 131.405 -150.47 127.748 -155.868 127.748C-162.851 127.748 -166.431 132.48 -166.431 141.618V178.635C-166.431 179.37 -166.727 180.075 -167.252 180.595C-167.779 181.114 -168.492 181.406 -169.236 181.406H-188.24C-188.984 181.406 -189.697 181.114 -190.223 180.594C-190.749 180.075 -191.045 179.37 -191.045 178.635V138.984C-191.045 131.633 -193.84 127.748 -199.12 127.748C-205.957 127.748 -209.705 132.594 -209.705 141.606V178.635C-209.705 179.37 -210.001 180.075 -210.527 180.594C-211.053 181.114 -211.767 181.406 -212.511 181.406H-232.195C-232.939 181.406 -233.652 181.114 -234.178 180.594C-234.704 180.075 -235 179.37 -235 178.635V111.592C-235 110.857 -234.704 110.152 -234.178 109.632C-233.652 109.112 -232.939 108.82 -232.195 108.82H-219.018C-217.919 108.82 -216.921 109.454 -216.466 110.443L-215.303 112.966C-215.12 113.362 -214.846 113.709 -214.502 113.981C-214.158 114.253 -213.754 114.441 -213.323 114.53C-212.892 114.619 -212.446 114.606 -212.021 114.493C-211.596 114.38 -211.204 114.169 -210.876 113.878C-205.826 109.386 -199.277 106.682 -192.196 106.682C-184.428 106.682 -177.724 109.682 -173.104 114.872C-172.851 115.157 -172.542 115.388 -172.195 115.549C-171.848 115.711 -171.472 115.8 -171.088 115.812C-170.705 115.823 -170.324 115.757 -169.968 115.616C-169.612 115.476 -169.289 115.264 -169.019 114.995C-163.796 109.826 -156.551 106.682 -148.529 106.682ZM-21.0304 106.669C-3.9875 106.669 7.21329 118.614 7.21329 137.092V178.635C7.21329 179.37 6.91776 180.075 6.39169 180.594C5.86565 181.114 5.15213 181.406 4.40817 181.406H-15.2762C-16.0201 181.406 -16.7336 181.114 -17.2597 180.594C-17.7857 180.075 -18.0813 179.37 -18.0813 178.635V140.551C-18.0813 132.091 -21.281 127.895 -27.6252 127.895C-35.4851 127.895 -40.0078 133.348 -40.0078 142.645V178.635C-40.0078 179.37 -40.3034 180.075 -40.8294 180.594C-41.3555 181.114 -42.069 181.406 -42.813 181.406H-62.4973C-63.2413 181.406 -63.9547 181.114 -64.4808 180.594C-65.0069 180.075 -65.3024 179.37 -65.3024 178.635V111.591C-65.3024 110.856 -65.0069 110.151 -64.4808 109.631C-63.9547 109.112 -63.2413 108.82 -62.4973 108.82H-49.3535C-48.2586 108.82 -47.2637 109.45 -46.8055 110.432L-45.72 112.76C-45.5364 113.153 -45.2621 113.499 -44.9189 113.768C-44.5758 114.038 -44.1734 114.225 -43.744 114.313C-43.3147 114.401 -42.8703 114.389 -42.4467 114.277C-42.0231 114.165 -41.632 113.956 -41.3047 113.668C-36.047 109.231 -29.0156 106.669 -21.0304 106.669ZM103.276 142.097L103.275 142.1C103.275 143.469 103.199 144.838 103.062 146.221C102.994 146.905 102.671 147.54 102.156 148.002C101.64 148.464 100.969 148.72 100.273 148.72C91.5544 148.723 62.2719 148.723 51.8818 148.723C51.4191 148.723 50.9637 148.835 50.5559 149.051C50.1482 149.267 49.8008 149.58 49.5448 149.96C49.2888 150.341 49.132 150.778 49.0885 151.233C49.045 151.688 49.1161 152.147 49.2955 152.568C51.7041 158.373 56.5308 161.363 63.1891 161.363C68.5376 161.363 73.0912 159.268 75.7121 155.72C75.9698 155.364 76.3098 155.074 76.7041 154.873C77.0983 154.673 77.5352 154.568 77.9786 154.568C81.801 154.551 91.9854 154.551 97.6751 154.551C98.1367 154.551 98.5911 154.663 98.9982 154.878C99.4053 155.093 99.7524 155.404 100.009 155.783C100.265 156.162 100.423 156.598 100.468 157.052C100.513 157.506 100.444 157.964 100.267 158.385C94.1079 172.694 80.161 181.46 63.1891 181.46C40.2602 181.46 23.2744 164.916 23.2744 142.731C23.2744 120.466 40.1237 104.114 63.1891 104.114C86.8755 104.114 103.276 120.796 103.276 142.097ZM63.1873 123.692C56.7458 123.692 52.0183 126.712 49.5591 132.282C49.435 132.561 49.3832 132.866 49.4085 133.17C49.4337 133.474 49.5352 133.766 49.7037 134.022C49.8723 134.277 50.1025 134.487 50.3737 134.632C50.645 134.778 50.9486 134.854 51.2572 134.854C56.8702 134.868 69.9906 134.868 75.6569 134.868C75.9715 134.868 76.281 134.79 76.5568 134.64C76.8326 134.491 77.0658 134.275 77.2347 134.013C77.4037 133.75 77.5029 133.45 77.5233 133.14C77.5436 132.83 77.4844 132.52 77.3512 132.238C74.7247 126.669 69.8475 123.692 63.1873 123.692ZM160.4 108.417H164.3C165.044 108.417 165.758 108.709 166.284 109.229C166.81 109.748 167.105 110.453 167.105 111.188V128.485C167.105 129.22 166.81 129.925 166.284 130.444C165.758 130.964 165.044 131.256 164.3 131.256H157.278C148.317 131.256 144.563 135.146 144.563 144.422V178.635C144.563 179.37 144.268 180.075 143.742 180.595C143.216 181.114 142.502 181.406 141.758 181.406H122.074C121.33 181.406 120.616 181.114 120.09 180.594C119.564 180.075 119.269 179.37 119.269 178.635V111.592C119.269 110.857 119.564 110.152 120.09 109.632C120.616 109.112 121.33 108.82 122.074 108.82H134.463C134.988 108.82 135.503 108.966 135.949 109.241C136.395 109.516 136.753 109.909 136.984 110.375L138.439 113.318C138.627 113.699 138.902 114.033 139.242 114.293C139.581 114.553 139.977 114.732 140.398 114.817C140.819 114.902 141.254 114.89 141.67 114.782C142.085 114.675 142.47 114.474 142.795 114.196C147.46 110.153 153.077 108.417 160.4 108.417ZM-173.546 68.9969H-166.636C-165.892 68.9969 -165.178 69.2889 -164.652 69.8086C-164.126 70.3284 -163.831 71.0333 -163.831 71.7683V88.1235C-163.831 88.8585 -164.126 89.5634 -164.652 90.0832C-165.178 90.6029 -165.892 90.8949 -166.636 90.8949H-181.246C-197.486 90.8949 -207.357 81.0822 -207.357 64.946V40.2895C-207.357 39.5545 -207.652 38.8496 -208.178 38.3298C-208.704 37.8101 -209.418 37.5181 -210.162 37.5181H-218.002C-218.746 37.5181 -219.459 37.2261 -219.986 36.7064C-220.512 36.1866 -220.807 35.4817 -220.807 34.7467V32.7854C-220.807 32.0796 -220.535 31.4016 -220.046 30.8879L-188.728 -2.04403C-188.466 -2.31997 -188.149 -2.5399 -187.797 -2.6902C-187.445 -2.84051 -187.066 -2.91802 -186.683 -2.91797H-185.548C-184.804 -2.91797 -184.09 -2.62597 -183.564 -2.10622C-183.038 -1.58648 -182.743 -0.881569 -182.743 -0.14654V15.5379C-182.743 16.2729 -182.447 16.9779 -181.921 17.4976C-181.395 18.0174 -180.682 18.3093 -179.938 18.3093H-167.044C-166.301 18.3093 -165.587 18.6013 -165.061 19.1211C-164.535 19.6408 -164.239 20.3457 -164.239 21.0808V34.7467C-164.239 35.4817 -164.535 36.1866 -165.061 36.7064C-165.587 37.2261 -166.301 37.5181 -167.044 37.5181H-179.257C-180.001 37.5181 -180.714 37.8101 -181.24 38.3298C-181.767 38.8496 -182.062 39.5545 -182.062 40.2895V60.6512C-182.062 65.856 -178.886 68.9969 -173.546 68.9969ZM63.3603 17.95L97.7723 37.58C98.3413 37.904 98.8139 38.3703 99.1425 38.9321C99.4711 39.4939 99.6441 40.1312 99.6441 40.7801C99.6441 41.4289 99.4711 42.0663 99.1425 42.6281C98.8139 43.1899 98.3413 43.6562 97.7723 43.9801L63.3603 63.6093C62.2231 64.2579 60.9332 64.5994 59.6201 64.5994C58.307 64.5994 57.0171 64.2579 55.88 63.6093L21.467 43.9801C20.8989 43.6554 20.4273 43.1888 20.0994 42.6272C19.7715 42.0655 19.5989 41.4285 19.5989 40.7801C19.5989 40.1317 19.7715 39.4947 20.0994 38.933C20.4273 38.3713 20.8989 37.9047 21.467 37.58L55.88 17.95C57.0171 17.3013 58.307 16.9598 59.6201 16.9598C60.9332 16.9598 62.2231 17.3013 63.3603 17.95Z" fill="#3F3F46"/>
<path fill-rule="evenodd" clip-rule="evenodd" d="M50.7812 40.0261C55.9482 41.7407 61.7492 42.5961 67.0517 41.8709C67.1156 41.862 67.1807 41.8696 67.2406 41.8931C68.7396 42.4776 70.3144 42.8508 71.9186 43.0017C72.8564 43.0894 73.8177 43.1023 74.7508 42.9767C74.833 42.9658 74.9165 42.9821 74.9883 43.0229L75.8093 43.4913C75.8662 43.5237 75.9134 43.5704 75.9463 43.6265C75.9791 43.6827 75.9964 43.7465 75.9964 43.8114C75.9964 43.8763 75.9791 43.94 75.9463 43.9962C75.9134 44.0524 75.8662 44.0991 75.8093 44.1315L67.7502 48.7284C67.6932 48.761 67.6286 48.7781 67.5627 48.7781C67.4969 48.7781 67.4322 48.761 67.3753 48.7284L66.5552 48.26C66.4769 48.2153 66.4176 48.144 66.3884 48.0594C66.3592 47.9748 66.362 47.8826 66.3963 47.7999C66.6487 47.1921 66.5543 46.5565 66.2869 45.956C65.9952 45.3047 65.5005 44.6941 64.9675 44.1906C64.8658 44.0957 64.7623 44.0027 64.6571 43.9116C64.5617 44.1274 64.4485 44.335 64.3186 44.5324C63.6417 45.5643 62.5355 46.3237 61.2274 46.8114C59.3199 47.5219 56.9814 47.6549 54.987 47.253C52.842 46.8207 50.9551 45.6918 50.2716 44.0234C49.9107 43.1421 49.8985 42.1998 50.1033 41.2954C50.1772 40.9721 50.2408 40.646 50.2922 40.3189C50.3011 40.266 50.3214 40.2156 50.3519 40.1711C50.3823 40.1267 50.4221 40.0893 50.4686 40.0615C50.515 40.0337 50.567 40.0161 50.621 40.01C50.6749 40.0039 50.7296 40.0094 50.7812 40.0261ZM50.6625 40.3762C50.6092 40.7115 50.5437 41.045 50.468 41.3757C50.28 42.2072 50.2866 43.0737 50.6185 43.8839C51.26 45.4507 53.0487 46.4853 55.0618 46.8909C58.2755 47.5385 62.414 46.7551 64.0045 44.3319C64.2154 44.0117 64.3774 43.6624 64.4851 43.2954C64.745 43.495 64.9937 43.7047 65.2256 43.9236C66.3617 44.9971 67.3257 46.5343 66.7422 47.9394L67.5632 48.4087L75.6223 43.8109L74.8013 43.3425C73.8401 43.4728 72.8499 43.4599 71.884 43.3693C70.2444 43.2159 68.6349 42.8346 67.1032 42.2367C61.7445 42.9702 55.8828 42.1083 50.6625 40.3762Z" fill="black" fill-opacity="0.02"/>
<path fill-rule="evenodd" clip-rule="evenodd" d="M70.3119 42.2104C70.8559 42.317 71.4083 42.3972 71.9648 42.449C72.8597 42.5323 73.7769 42.5469 74.6669 42.4267C74.8723 42.3989 75.0813 42.4394 75.2609 42.5419L76.0818 43.0103C76.371 43.1754 76.5492 43.4803 76.5492 43.8103C76.5492 44.1404 76.371 44.4453 76.0818 44.6104L68.0252 49.2073C67.7358 49.3724 67.3793 49.3724 67.09 49.207L66.2697 48.7382C65.865 48.5069 65.6955 48.0157 65.8727 47.5882C66.0655 47.1233 65.9738 46.6383 65.7688 46.179C65.5478 45.6841 65.193 45.2177 64.7995 44.8116L64.7853 44.8332C64.0467 45.9585 62.8488 46.7973 61.4222 47.3288C59.4208 48.0747 56.9672 48.2165 54.8745 47.7946C52.5326 47.3227 50.4998 46.0523 49.7532 44.2299C49.3486 43.2423 49.3277 42.1866 49.5575 41.1733C49.9181 39.5834 50.0428 37.9391 49.6175 36.3494C49.3863 35.4852 48.9804 34.665 48.5008 33.8657C48.3127 33.5523 48.3287 33.1589 48.5414 32.8613C48.7542 32.5638 49.1241 32.4176 49.4858 32.4882C51.0875 32.8009 52.7051 33.0497 54.3494 33.1849C57.2965 33.4273 60.2764 33.3555 63.2221 33.138C65.1123 32.9983 67.061 33.0313 68.903 33.4138C70.136 33.6699 71.3382 34.095 72.3056 34.7467C72.8412 35.1075 73.3014 35.5384 73.6377 36.0223C73.9338 36.4484 74.1331 36.914 74.2199 37.3929C74.2877 37.7681 74.2874 38.1487 74.219 38.5239C74.0379 39.5175 73.4344 40.3594 72.561 41.0279C71.9259 41.514 71.1419 41.9081 70.3119 42.2104ZM63.2917 34.0592C60.2972 34.2802 57.2679 34.3519 54.2719 34.1055C52.5926 33.9674 50.9405 33.7138 49.3047 33.3945C49.8293 34.2687 50.2683 35.1681 50.5212 36.1133C50.9851 37.8473 50.8629 39.641 50.4696 41.3753C50.281 42.2065 50.2877 43.0732 50.6196 43.8833C51.2612 45.4495 53.0486 46.4839 55.0613 46.8895C58.2738 47.537 62.4107 46.7536 64.0011 44.3306C64.2166 44.0022 64.3767 43.6531 64.4809 43.2942C64.7414 43.494 64.9894 43.7034 65.2215 43.9228C66.3569 44.996 67.3204 46.5331 66.7376 47.9386L67.5579 48.4074L75.6145 43.8103L74.7935 43.3419C73.833 43.4718 72.843 43.4586 71.8772 43.3688C70.0492 43.1984 68.264 42.738 66.6535 42.0547C67.1638 42.0063 67.6709 41.9367 68.1699 41.8413C70.4177 41.4118 72.9466 40.2946 73.2991 38.3601C73.3478 38.0933 73.3481 37.8227 73.2999 37.5558C73.2358 37.2024 73.0858 36.8598 72.8672 36.5453C72.5934 36.1513 72.2153 35.8038 71.7791 35.51C70.9077 34.9229 69.8215 34.5485 68.7107 34.3178C66.9538 33.953 65.0947 33.926 63.2917 34.0592Z" fill="black" fill-opacity="0.1"/>
<path fill-rule="evenodd" clip-rule="evenodd" d="M63.2917 34.0592C60.2972 34.2803 57.2679 34.3519 54.2719 34.1055C52.5926 33.9675 50.9405 33.7138 49.3047 33.3945C49.8293 34.2688 50.2683 35.1681 50.5212 36.1133C50.9851 37.8473 50.8629 39.6411 50.4696 41.3754C50.2811 42.2066 50.2877 43.0733 50.6196 43.8834C51.2612 45.4496 53.0487 46.4839 55.0613 46.8895C58.2738 47.537 62.4107 46.7537 64.0011 44.3306C64.2166 44.0023 64.3767 43.6531 64.481 43.2943C64.7414 43.494 64.9894 43.7035 65.2216 43.9229C66.3569 44.996 67.3204 46.5332 66.7376 47.9387L67.5579 48.4074C68.9007 47.6411 74.2717 44.5765 75.6145 43.8103C75.3409 43.6542 75.0672 43.4982 74.7935 43.3419C73.833 43.4718 72.843 43.4586 71.8772 43.3688C70.0492 43.1985 68.264 42.7381 66.6535 42.0547C67.1638 42.0064 67.6709 41.9367 68.1699 41.8414C70.4178 41.4119 72.9466 40.2947 73.2991 38.3602C73.3478 38.0934 73.3481 37.8227 73.2999 37.5559C73.2358 37.2024 73.0858 36.8599 72.8672 36.5454C72.5934 36.1513 72.2153 35.8038 71.7791 35.51C70.9077 34.923 69.8215 34.5486 68.7108 34.3179C66.9538 33.953 65.0947 33.926 63.2917 34.0592Z" fill="white" stroke="#2D2D2D" stroke-width="0.984368" stroke-miterlimit="2" stroke-linejoin="round"/>
<path fill-rule="evenodd" clip-rule="evenodd" d="M50.6626 40.3762C55.8829 42.1084 61.7446 42.9703 67.1033 42.2368C68.635 42.8346 70.2445 43.2159 71.8841 43.3694C72.85 43.4599 73.8402 43.4728 74.8014 43.3426L75.6224 43.811L67.5633 48.4088L66.7423 47.9395C67.3258 46.5343 66.3618 44.9971 65.2257 43.9237C64.9898 43.702 64.7427 43.4923 64.4852 43.2955C64.3775 43.6625 64.2155 44.0117 64.0046 44.332C62.4141 46.7551 58.2756 47.5385 55.0619 46.8909C53.0488 46.4854 51.26 45.4507 50.6186 43.884C50.2867 43.0738 50.2801 42.2072 50.4681 41.3758C50.5438 41.0451 50.6093 40.7116 50.6626 40.3762Z" fill="black" fill-opacity="0.1"/>
<defs>
<linearGradient id="paint0_linear_19_149" x1="44.9527" y1="43.0854" x2="86.561" y2="100.821" gradientUnits="userSpaceOnUse">
<stop stop-color="#0403E5"/>
<stop offset="1" stop-color="#01EBFF"/>
</linearGradient>
<linearGradient id="paint1_linear_19_149" x1="97.3466" y1="54.958" x2="24.7167" y2="54.958" gradientUnits="userSpaceOnUse">
<stop stop-color="#0503E3" stop-opacity="0.8"/>
<stop offset="1" stop-color="#00EDFE" stop-opacity="0.8"/>
</linearGradient>
</defs>
</svg>
