<svg width="92" height="92" viewBox="0 0 92 92" fill="none" xmlns="http://www.w3.org/2000/svg">
<rect x="0.182129" y="0.342163" width="91.3229" height="91.3229" rx="5.1305" fill="#333B4A"/>
<circle cx="46.3566" cy="46.5165" r="25.6525" stroke="white" stroke-width="3.0783"/>
<path d="M46.6402 55.3176C45.2934 55.3176 44.0953 55.099 43.0459 54.6617C42.0023 54.2186 41.1832 53.6152 40.5885 52.8515C39.9938 52.0877 39.6965 51.222 39.6965 50.2542C39.6965 49.5079 39.8656 48.8229 40.2037 48.199C40.5477 47.5694 41.0141 47.0476 41.603 46.6337C42.1918 46.2139 42.8506 45.9457 43.5794 45.8291V45.7067C42.6232 45.5143 41.8478 45.0508 41.2531 44.3162C40.6585 43.5758 40.3611 42.7158 40.3611 41.7364C40.3611 40.8094 40.6322 39.9844 41.1744 39.2615C41.7166 38.5327 42.46 37.9614 43.4045 37.5474C44.3548 37.1277 45.4333 36.9178 46.6402 36.9178C47.847 36.9178 48.9227 37.1277 49.8671 37.5474C50.8175 37.9672 51.5637 38.5415 52.1059 39.2702C52.6481 39.9932 52.9221 40.8152 52.928 41.7364C52.9221 42.7217 52.619 43.5816 52.0185 44.3162C51.418 45.0508 50.6484 45.5143 49.7097 45.7067V45.8291C50.4268 45.9457 51.0769 46.2139 51.6599 46.6337C52.2487 47.0476 52.7152 47.5694 53.0591 48.199C53.4089 48.8229 53.5868 49.5079 53.5926 50.2542C53.5868 51.222 53.2865 52.0877 52.6918 52.8515C52.0972 53.6152 51.2751 54.2186 50.2257 54.6617C49.1821 55.099 47.9869 55.3176 46.6402 55.3176ZM46.6402 52.5367C47.2407 52.5367 47.7654 52.4288 48.2143 52.2131C48.6632 51.9915 49.013 51.6884 49.2637 51.3036C49.5203 50.913 49.6485 50.464 49.6485 49.9568C49.6485 49.4379 49.5173 48.9803 49.255 48.5838C48.9926 48.1816 48.637 47.8667 48.1881 47.6394C47.7392 47.4061 47.2232 47.2895 46.6402 47.2895C46.063 47.2895 45.547 47.4061 45.0923 47.6394C44.6375 47.8667 44.279 48.1816 44.0166 48.5838C43.7601 48.9803 43.6318 49.4379 43.6318 49.9568C43.6318 50.464 43.7572 50.913 44.0079 51.3036C44.2586 51.6884 44.6113 51.9915 45.066 52.2131C45.5208 52.4288 46.0455 52.5367 46.6402 52.5367ZM46.6402 44.5348C47.1416 44.5348 47.5876 44.4328 47.9782 44.2287C48.3688 44.0247 48.6749 43.7419 48.8964 43.3805C49.118 43.019 49.2287 42.6021 49.2287 42.1299C49.2287 41.6635 49.118 41.2554 48.8964 40.9056C48.6749 40.5499 48.3717 40.273 47.9869 40.0748C47.6021 39.8707 47.1532 39.7687 46.6402 39.7687C46.133 39.7687 45.684 39.8707 45.2934 40.0748C44.9028 40.273 44.5967 40.5499 44.3752 40.9056C44.1595 41.2554 44.0516 41.6635 44.0516 42.1299C44.0516 42.6021 44.1624 43.019 44.3839 43.3805C44.6055 43.7419 44.9115 44.0247 45.3022 44.2287C45.6928 44.4328 46.1388 44.5348 46.6402 44.5348Z" fill="white"/>
</svg>
