<svg width="70" height="63" viewBox="0 0 70 63" fill="none" xmlns="http://www.w3.org/2000/svg">
<path fill-rule="evenodd" clip-rule="evenodd" d="M39.3435 25.9624C38.6418 25.5622 37.8459 25.3516 37.0356 25.3516C36.2254 25.3516 35.4295 25.5622 34.7277 25.9624L13.4937 38.0748C13.1427 38.2748 12.8512 38.5626 12.6485 38.9092C12.4458 39.2558 12.3391 39.6491 12.3391 40.0494C12.3391 40.4497 12.4458 40.8429 12.6485 41.1896C12.8512 41.5362 13.1427 41.824 13.4937 42.0239L34.7277 54.1364C35.4295 54.5365 36.2254 54.7472 37.0356 54.7472C37.8459 54.7472 38.6418 54.5365 39.3435 54.1364L60.5781 42.0239C60.9288 41.8238 61.2201 41.5359 61.4226 41.1893C61.6251 40.8427 61.7317 40.4496 61.7317 40.0494C61.7317 39.6492 61.6251 39.256 61.4226 38.9094C61.2201 38.5628 60.9288 38.275 60.5781 38.0748L39.3435 25.9624Z" fill="url(#paint0_linear_45_423)"/>
<path fill-rule="evenodd" clip-rule="evenodd" d="M39.3435 25.9624L60.5781 38.0748C60.9288 38.275 61.2201 38.5628 61.4226 38.9094C61.6251 39.256 61.7317 39.6492 61.7317 40.0494C61.7317 40.4496 61.6251 40.8427 61.4226 41.1893C61.2201 41.5359 60.9288 41.8238 60.5781 42.0239L39.3435 54.1364C38.6418 54.5365 37.8459 54.7472 37.0356 54.7472C36.2254 54.7472 35.4295 54.5365 34.7277 54.1364L13.4937 42.0239C13.1427 41.824 12.8512 41.5362 12.6485 41.1896C12.4458 40.8429 12.3391 40.4497 12.3391 40.0494C12.3391 39.6491 12.4458 39.2558 12.6485 38.9092C12.8512 38.5626 13.1427 38.2748 13.4937 38.0748L34.7277 25.9624C35.4295 25.5622 36.2254 25.3516 37.0356 25.3516C37.8459 25.3516 38.6418 25.5622 39.3435 25.9624ZM39.1993 26.2093C38.5415 25.834 37.7953 25.6364 37.0356 25.6364C36.276 25.6364 35.5298 25.834 34.872 26.2093L13.6379 38.3218C13.331 38.4968 13.0761 38.7487 12.8988 39.0519C12.7216 39.3552 12.6283 39.6992 12.6283 40.0494C12.6283 40.3996 12.7216 40.7436 12.8988 41.0468C13.0761 41.3501 13.331 41.6019 13.6379 41.777L34.872 53.8894C35.5298 54.2648 36.276 54.4624 37.0356 54.4624C37.7953 54.4624 38.5415 54.2648 39.1993 53.8894L60.4334 41.777C60.7404 41.602 60.9955 41.3502 61.1728 41.047C61.3501 40.7437 61.4435 40.3996 61.4435 40.0494C61.4435 39.6991 61.3501 39.3551 61.1728 39.0518C60.9955 38.7485 60.7404 38.4967 60.4334 38.3218L39.1993 26.2093Z" fill="white" fill-opacity="0.25"/>
<path fill-rule="evenodd" clip-rule="evenodd" d="M39.3435 20.3589C38.6418 19.9587 37.8459 19.748 37.0356 19.748C36.2254 19.748 35.4295 19.9587 34.7277 20.3589L13.4937 32.4713C13.1427 32.6713 12.8512 32.959 12.6485 33.3057C12.4458 33.6523 12.3391 34.0455 12.3391 34.4459C12.3391 34.8462 12.4458 35.2394 12.6485 35.586C12.8512 35.9327 13.1427 36.2204 13.4937 36.4204L34.7277 48.5328C35.4295 48.933 36.2254 49.1437 37.0356 49.1437C37.8459 49.1437 38.6418 48.933 39.3435 48.5328L60.5781 36.4204C60.9288 36.2202 61.2201 35.9324 61.4226 35.5858C61.6251 35.2392 61.7317 34.8461 61.7317 34.4459C61.7317 34.0457 61.6251 33.6525 61.4226 33.3059C61.2201 32.9593 60.9288 32.6715 60.5781 32.4713L39.3435 20.3589Z" fill="url(#paint1_linear_45_423)"/>
<path fill-rule="evenodd" clip-rule="evenodd" d="M39.3435 20.3589L60.5781 32.4713C60.9288 32.6715 61.2201 32.9593 61.4226 33.3059C61.6251 33.6525 61.7317 34.0457 61.7317 34.4459C61.7317 34.8461 61.6251 35.2392 61.4226 35.5858C61.2201 35.9324 60.9288 36.2202 60.5781 36.4204L39.3435 48.5328C38.6418 48.933 37.8459 49.1437 37.0356 49.1437C36.2254 49.1437 35.4295 48.933 34.7277 48.5328L13.4937 36.4204C13.1427 36.2204 12.8512 35.9327 12.6485 35.586C12.4458 35.2394 12.3391 34.8462 12.3391 34.4459C12.3391 34.0455 12.4458 33.6523 12.6485 33.3057C12.8512 32.959 13.1427 32.6713 13.4937 32.4713L34.7277 20.3589C35.4295 19.9587 36.2254 19.748 37.0356 19.748C37.8459 19.748 38.6418 19.9587 39.3435 20.3589ZM39.1993 20.6058C38.5415 20.2305 37.7953 20.0329 37.0356 20.0329C36.276 20.0329 35.5298 20.2305 34.872 20.6058L13.6379 32.7183C13.331 32.8933 13.0761 33.1451 12.8988 33.4484C12.7216 33.7517 12.6283 34.0957 12.6283 34.4459C12.6283 34.796 12.7216 35.1401 12.8988 35.4433C13.0761 35.7466 13.331 35.9984 13.6379 36.1735L34.872 48.2859C35.5298 48.6612 36.276 48.8589 37.0356 48.8589C37.7953 48.8589 38.5415 48.6612 39.1993 48.2859L60.4334 36.1735C60.7404 35.9985 60.9955 35.7467 61.1728 35.4434C61.3501 35.1402 61.4435 34.7961 61.4435 34.4459C61.4435 34.0956 61.3501 33.7516 61.1728 33.4483C60.9955 33.145 60.7404 32.8932 60.4334 32.7183L39.1993 20.6058Z" fill="white" fill-opacity="0.25"/>
<path fill-rule="evenodd" clip-rule="evenodd" d="M-83.8404 12.6721C-83.5704 12.4054 -83.25 12.1937 -82.8972 12.0494C-82.5445 11.905 -82.1665 11.8307 -81.7847 11.8307H-77.0542C-76.5951 11.8307 -76.1549 12.0109 -75.8303 12.3316C-75.5056 12.6523 -75.3233 13.0873 -75.3233 13.5408V54.9099C-75.3231 55.1345 -75.3678 55.357 -75.4547 55.5645C-75.5417 55.7721 -75.6692 55.9606 -75.8299 56.1195C-75.9907 56.2783 -76.1815 56.4042 -76.3916 56.4901C-76.6017 56.576 -76.8268 56.6202 -77.0542 56.62H-89.2003C-89.6594 56.62 -90.0997 56.4398 -90.4243 56.1191C-90.7489 55.7984 -90.9312 55.3635 -90.9312 54.9099V20.3864C-90.9312 19.9326 -90.7489 19.4977 -90.4246 19.1768L-83.8404 12.6721ZM-47.6003 56.4148C-47.8617 56.2979 -48.1486 56.2477 -48.4347 56.2688C-48.7208 56.2899 -48.9969 56.3816 -49.2378 56.5355C-49.4788 56.6894 -49.6767 56.9006 -49.8136 57.1497C-49.9505 57.3988 -50.0219 57.6779 -50.0213 57.9613C-50.0172 68.0726 -49.9445 102.643 -49.9272 110.756C-49.927 110.981 -49.9716 111.204 -50.0584 111.411C-50.1453 111.619 -50.2728 111.808 -50.4335 111.967C-50.5942 112.126 -50.7851 112.252 -50.9952 112.339C-51.2053 112.425 -51.4306 112.469 -51.6581 112.47H-63.8002C-64.0276 112.47 -64.2527 112.425 -64.4628 112.339C-64.6728 112.253 -64.8636 112.127 -65.0244 111.969C-65.1851 111.81 -65.3126 111.621 -65.3995 111.414C-65.4865 111.206 -65.5312 110.984 -65.5311 110.759L-65.4902 13.5408C-65.4899 13.0875 -65.3074 12.6528 -64.9828 12.3324C-64.6582 12.0119 -64.2181 11.8319 -63.7593 11.8319H-55.9045C-55.5931 11.8318 -55.2875 11.9148 -55.0199 12.072C-54.7522 12.2292 -54.5324 12.4548 -54.3837 12.7251L-53.8904 13.6223C-53.7723 13.837 -53.609 14.0242 -53.4116 14.1712C-53.2141 14.3183 -52.9871 14.4219 -52.7457 14.475C-52.5044 14.5281 -52.2543 14.5295 -52.0123 14.4791C-51.7704 14.4286 -51.5422 14.3276 -51.3431 14.1827C-47.8842 11.7401 -43.6626 10.3629 -38.9996 10.3629C-25.1335 10.3629 -15.2294 20.2661 -15.2294 34.2314C-15.2294 48.1864 -25.1335 58.1363 -38.9996 58.1363C-42.0933 58.1363 -44.9902 57.5309 -47.6003 56.4148ZM-41.0899 44.4828C-35.2724 44.4828 -30.9337 40.1135 -30.9337 34.2257C-30.9337 28.3372 -35.2361 23.9679 -41.0899 23.9679C-46.9432 23.9679 -51.2444 28.3372 -51.2444 34.2257C-51.2444 40.1135 -46.9432 44.4828 -41.0899 44.4828ZM-91.4032 66.3619C-81.6947 66.3619 -75.2431 73.839 -75.2431 84.3864V110.76C-75.2431 111.214 -75.4255 111.649 -75.7501 111.969C-76.0747 112.29 -76.5149 112.47 -76.974 112.47H-89.1201C-89.5792 112.47 -90.0195 112.29 -90.3441 111.969C-90.6687 111.649 -90.851 111.214 -90.851 110.76V86.2937C-90.851 81.6171 -92.6009 79.3609 -95.9317 79.3609C-100.24 79.3609 -102.45 82.2806 -102.45 87.9188V110.76C-102.45 111.214 -102.632 111.649 -102.956 111.97C-103.281 112.29 -103.721 112.47 -104.181 112.47H-115.907C-116.366 112.47 -116.806 112.29 -117.131 111.969C-117.455 111.649 -117.638 111.214 -117.638 110.76V86.2937C-117.638 81.7579 -119.362 79.3609 -122.62 79.3609C-126.839 79.3609 -129.152 82.3508 -129.152 87.912V110.76C-129.152 111.214 -129.334 111.649 -129.659 111.969C-129.984 112.29 -130.424 112.47 -130.883 112.47H-143.029C-143.488 112.47 -143.928 112.29 -144.253 111.969C-144.578 111.649 -144.76 111.214 -144.76 110.76V69.3916C-144.76 68.9381 -144.578 68.5031 -144.253 68.1824C-143.928 67.8617 -143.488 67.6815 -143.029 67.6815H-134.898C-134.22 67.6815 -133.604 68.0725 -133.323 68.6825L-132.606 70.2393C-132.493 70.4836 -132.324 70.6982 -132.112 70.8659C-131.899 71.0336 -131.65 71.1496 -131.384 71.2044C-131.118 71.2592 -130.843 71.2514 -130.581 71.1816C-130.318 71.1118 -130.076 70.9819 -129.874 70.8025C-126.758 68.0304 -122.717 66.3619 -118.348 66.3619C-113.554 66.3619 -109.418 68.2134 -106.567 71.4158C-106.411 71.5916 -106.22 71.7338 -106.006 71.8335C-105.792 71.9332 -105.56 71.9883 -105.323 71.9955C-105.087 72.0026 -104.852 71.9615 -104.632 71.8748C-104.412 71.7881 -104.213 71.6577 -104.047 71.4916C-100.824 68.3017 -96.3529 66.3619 -91.4032 66.3619ZM-12.7306 66.3539C-2.21434 66.3539 4.69707 73.7244 4.69707 85.1263V110.76C4.69707 111.214 4.51471 111.649 4.19011 111.969C3.86551 112.29 3.42525 112.47 2.96619 112.47H-9.17998C-9.63904 112.47 -10.0793 112.29 -10.4039 111.969C-10.7285 111.649 -10.9109 111.214 -10.9109 110.76V87.2605C-10.9109 82.0407 -12.8852 79.4516 -16.7999 79.4516C-21.6498 79.4516 -24.4406 82.8159 -24.4406 88.5527V110.76C-24.4406 111.214 -24.6229 111.649 -24.9475 111.969C-25.2721 112.29 -25.7124 112.47 -26.1715 112.47H-38.3176C-38.7767 112.47 -39.2169 112.29 -39.5415 111.969C-39.8661 111.649 -40.0485 111.214 -40.0485 110.76V69.391C-40.0485 68.9375 -39.8661 68.5025 -39.5415 68.1818C-39.2169 67.8611 -38.7767 67.6809 -38.3176 67.6809H-30.2073C-29.5317 67.6809 -28.9178 68.0697 -28.6351 68.6756L-27.9652 70.1121C-27.852 70.355 -27.6827 70.5682 -27.4709 70.7346C-27.2592 70.9011 -27.0109 71.0162 -26.746 71.0707C-26.481 71.1252 -26.2069 71.1175 -25.9455 71.0484C-25.6841 70.9792 -25.4427 70.8505 -25.2408 70.6725C-21.9966 67.9346 -17.6578 66.3539 -12.7306 66.3539ZM63.9722 88.2147L63.9717 88.2164C63.9717 89.0612 63.9249 89.906 63.8401 90.7593C63.7984 91.1817 63.599 91.5735 63.2809 91.8586C62.9627 92.1436 62.5485 92.3014 62.119 92.3013C56.7395 92.303 38.6708 92.303 32.2596 92.303C31.9742 92.3029 31.6931 92.3726 31.4415 92.5059C31.1899 92.6391 30.9756 92.8318 30.8176 93.0667C30.6596 93.3016 30.5629 93.5715 30.5361 93.8523C30.5092 94.1331 30.5531 94.416 30.6637 94.676C32.15 98.2576 35.1283 100.103 39.2368 100.103C42.537 100.103 45.3468 98.8099 46.964 96.621C47.123 96.4011 47.3329 96.2218 47.5761 96.0982C47.8194 95.9746 48.089 95.9101 48.3626 95.9102C50.7212 95.8993 57.0054 95.8993 60.5163 95.8993C60.8011 95.8992 61.0815 95.9686 61.3327 96.1012C61.5839 96.2338 61.7981 96.4256 61.9563 96.6596C62.1145 96.8935 62.2117 97.1625 62.2395 97.4425C62.2673 97.7226 62.2248 98.0051 62.1156 98.265C58.3152 107.094 49.7092 112.503 39.2368 112.503C25.0886 112.503 14.6075 102.295 14.6075 88.6057C14.6075 74.8674 25.0043 64.7772 39.2368 64.7772C53.8524 64.7772 63.9722 75.0709 63.9722 88.2147ZM39.2356 76.8579C35.261 76.8579 32.3438 78.7214 30.8264 82.1581C30.7498 82.3303 30.7179 82.5187 30.7335 82.7062C30.7491 82.8936 30.8117 83.0743 30.9157 83.2319C31.0197 83.3895 31.1617 83.5189 31.3291 83.6086C31.4965 83.6983 31.6838 83.7454 31.8742 83.7456C35.3377 83.7542 43.4336 83.7542 46.93 83.7542C47.1241 83.7542 47.3151 83.7058 47.4853 83.6135C47.6555 83.5213 47.7993 83.3881 47.9036 83.2263C48.0078 83.0645 48.0691 82.8793 48.0816 82.6879C48.0942 82.4965 48.0577 82.3051 47.9754 82.1313C46.3548 78.6951 43.3453 76.8579 39.2356 76.8579ZM99.2205 67.4324H101.627C102.086 67.4324 102.526 67.6126 102.851 67.9333C103.175 68.254 103.358 68.689 103.358 69.1425V79.8152C103.358 80.2688 103.175 80.7038 102.851 81.0245C102.526 81.3452 102.086 81.5253 101.627 81.5253H97.294C91.7644 81.5253 89.4485 83.9258 89.4485 89.6495V110.76C89.4485 111.214 89.2662 111.649 88.9419 111.97C88.617 112.29 88.1767 112.47 87.7176 112.47H75.5715C75.1124 112.47 74.6721 112.29 74.3475 111.969C74.0229 111.649 73.8406 111.214 73.8406 110.76V69.3916C73.8406 68.9381 74.0229 68.5031 74.3475 68.1824C74.6721 67.8617 75.1124 67.6815 75.5715 67.6815H83.2162C83.5404 67.6815 83.8581 67.7713 84.1331 67.941C84.4081 68.1106 84.6293 68.3531 84.7717 68.6409L85.6694 70.4564C85.7857 70.6918 85.9552 70.8977 86.1648 71.0581C86.3744 71.2185 86.6185 71.3292 86.8783 71.3816C87.1381 71.4339 87.4066 71.4267 87.663 71.3602C87.9195 71.2938 88.1571 71.1701 88.3575 70.9985C91.2359 68.5035 94.7017 67.4324 99.2205 67.4324ZM-106.84 43.1085H-102.576C-102.117 43.1085 -101.677 43.2887 -101.352 43.6094C-101.027 43.9301 -100.845 44.3651 -100.845 44.8186V54.9105C-100.845 55.364 -101.027 55.799 -101.352 56.1197C-101.677 56.4404 -102.117 56.6206 -102.576 56.6206H-111.591C-121.612 56.6206 -127.703 50.5657 -127.703 40.6089V25.3947C-127.703 24.9411 -127.885 24.5062 -128.21 24.1855C-128.534 23.8648 -128.974 23.6846 -129.434 23.6846H-134.271C-134.73 23.6846 -135.171 23.5044 -135.495 23.1837C-135.82 22.863 -136.002 22.428 -136.002 21.9745V20.7643C-136.002 20.3288 -135.834 19.9104 -135.533 19.5935L-116.208 -0.727097C-116.046 -0.897367 -115.85 -1.03307 -115.633 -1.12581C-115.416 -1.21856 -115.182 -1.26639 -114.946 -1.26636H-114.246C-113.787 -1.26636 -113.346 -1.08618 -113.022 -0.765473C-112.697 -0.444767 -112.515 -0.00980318 -112.515 0.443744V10.1218C-112.515 10.5753 -112.332 11.0103 -112.008 11.331C-111.683 11.6517 -111.243 11.8319 -110.784 11.8319H-102.828C-102.369 11.8319 -101.929 12.0121 -101.604 12.3328C-101.28 12.6535 -101.097 13.0884 -101.097 13.542V21.9745C-101.097 22.428 -101.28 22.863 -101.604 23.1837C-101.929 23.5044 -102.369 23.6846 -102.828 23.6846H-110.364C-110.823 23.6846 -111.263 23.8648 -111.588 24.1855C-111.912 24.5062 -112.095 24.9411 -112.095 25.3947V37.9588C-112.095 41.1704 -110.135 43.1085 -106.84 43.1085ZM39.3424 11.6101L60.5763 23.7228C60.9274 23.9227 61.2189 24.2104 61.4217 24.5571C61.6245 24.9037 61.7312 25.297 61.7312 25.6974C61.7312 26.0977 61.6245 26.4911 61.4217 26.8377C61.2189 27.1843 60.9274 27.4721 60.5763 27.672L39.3424 39.7841C38.6407 40.1843 37.8448 40.395 37.0345 40.395C36.2243 40.395 35.4284 40.1843 34.7267 39.7841L13.4923 27.672C13.1417 27.4716 12.8507 27.1837 12.6484 26.8371C12.4461 26.4905 12.3396 26.0975 12.3396 25.6974C12.3396 25.2973 12.4461 24.9042 12.6484 24.5576C12.8507 24.2111 13.1417 23.9232 13.4923 23.7228L34.7267 11.6101C35.4284 11.2099 36.2243 10.9992 37.0345 10.9992C37.8448 10.9992 38.6407 11.2099 39.3424 11.6101Z" fill="#3F3F46"/>
<path fill-rule="evenodd" clip-rule="evenodd" d="M31.5805 25.2321C34.7688 26.2901 38.3482 26.818 41.6202 26.3705C41.6596 26.365 41.6997 26.3697 41.7367 26.3842C42.6616 26.7448 43.6334 26.9751 44.6233 27.0682C45.2019 27.1224 45.7951 27.1303 46.3709 27.0528C46.4216 27.0461 46.4731 27.0561 46.5174 27.0813L47.024 27.3703C47.0591 27.3903 47.0882 27.4191 47.1085 27.4538C47.1288 27.4885 47.1395 27.5278 47.1395 27.5678C47.1395 27.6079 47.1288 27.6472 47.1085 27.6819C47.0882 27.7166 47.0591 27.7453 47.024 27.7653L42.0512 30.6018C42.016 30.622 41.9761 30.6325 41.9355 30.6325C41.8949 30.6325 41.8549 30.622 41.8198 30.6018L41.3138 30.3128C41.2655 30.2852 41.2289 30.2413 41.2109 30.1891C41.1928 30.1369 41.1946 30.08 41.2157 30.029C41.3715 29.6539 41.3132 29.2617 41.1482 28.8912C40.9682 28.4893 40.663 28.1125 40.3341 27.8018C40.2714 27.7433 40.2075 27.6859 40.1426 27.6297C40.0837 27.7628 40.0138 27.8909 39.9337 28.0128C39.516 28.6495 38.8334 29.118 38.0263 29.419C36.8493 29.8574 35.4063 29.9395 34.1756 29.6915C32.8521 29.4247 31.6878 28.7281 31.266 27.6986C31.0433 27.1548 31.0358 26.5734 31.1622 26.0154C31.2078 25.8158 31.247 25.6146 31.2787 25.4128C31.2842 25.3802 31.2968 25.3491 31.3156 25.3216C31.3344 25.2942 31.3589 25.2711 31.3876 25.254C31.4162 25.2368 31.4483 25.226 31.4816 25.2222C31.5149 25.2184 31.5486 25.2218 31.5805 25.2321ZM31.5072 25.4482C31.4743 25.6551 31.4339 25.8609 31.3872 26.0649C31.2712 26.578 31.2753 27.1127 31.4801 27.6126C31.8759 28.5794 32.9796 29.2178 34.2218 29.468C36.2048 29.8676 38.7584 29.3842 39.7398 27.889C39.87 27.6914 39.97 27.4759 40.0364 27.2495C40.1968 27.3726 40.3503 27.502 40.4934 27.6371C41.1944 28.2995 41.7892 29.248 41.4292 30.115L41.9358 30.4046L46.9086 27.5676L46.402 27.2785C45.8089 27.3589 45.1979 27.3509 44.6019 27.2951C43.5902 27.2004 42.5971 26.9651 41.6519 26.5962C38.3453 27.0488 34.7284 26.517 31.5072 25.4482Z" fill="black" fill-opacity="0.02"/>
<path fill-rule="evenodd" clip-rule="evenodd" d="M43.6319 26.5801C43.9676 26.6458 44.3084 26.6953 44.6518 26.7273C45.204 26.7787 45.77 26.7877 46.3192 26.7135C46.4459 26.6964 46.5749 26.7214 46.6857 26.7846L47.1922 27.0736C47.3707 27.1755 47.4806 27.3636 47.4806 27.5672C47.4806 27.771 47.3707 27.9591 47.1922 28.061L42.2209 30.8975C42.0424 30.9993 41.8223 30.9993 41.6438 30.8973L41.1377 30.608C40.888 30.4653 40.7834 30.1622 40.8927 29.8984C41.0117 29.6115 40.9551 29.3123 40.8286 29.0288C40.6922 28.7235 40.4733 28.4357 40.2305 28.1851L40.2217 28.1984C39.766 28.8928 39.0269 29.4104 38.1465 29.7383C36.9116 30.1986 35.3976 30.2861 34.1063 30.0258C32.6613 29.7345 31.4069 28.9507 30.9462 27.8262C30.6966 27.2168 30.6837 26.5653 30.8255 25.9401C31.048 24.9591 31.1249 23.9444 30.8625 22.9635C30.7199 22.4303 30.4694 21.9242 30.1734 21.431C30.0574 21.2376 30.0672 20.9948 30.1985 20.8112C30.3298 20.6276 30.5581 20.5375 30.7813 20.581C31.7696 20.7739 32.7677 20.9275 33.7823 21.0109C35.6008 21.1605 37.4395 21.1161 39.2572 20.9819C40.4235 20.8958 41.626 20.9161 42.7625 21.1521C43.5234 21.3102 44.2652 21.5724 44.8621 21.9746C45.1926 22.1972 45.4766 22.4631 45.6841 22.7617C45.8668 23.0246 45.9898 23.3119 46.0434 23.6074C46.0852 23.8389 46.085 24.0738 46.0428 24.3053C45.9311 24.9184 45.5587 25.4379 45.0197 25.8504C44.6278 26.1503 44.1441 26.3935 43.6319 26.5801ZM39.3001 21.5503C37.4524 21.6868 35.5831 21.731 33.7345 21.5789C32.6983 21.4937 31.6789 21.3372 30.6695 21.1402C30.9932 21.6797 31.2641 22.2346 31.4201 22.8178C31.7064 23.8878 31.631 24.9946 31.3883 26.0648C31.2719 26.5777 31.276 27.1124 31.4808 27.6123C31.8767 28.5787 32.9797 29.217 34.2216 29.4672C36.2039 29.8668 38.7565 29.3834 39.7379 27.8883C39.8708 27.6857 39.9696 27.4703 40.0339 27.2488C40.1947 27.3721 40.3477 27.5013 40.4909 27.6367C41.1915 28.2989 41.786 29.2474 41.4264 30.1146L41.9326 30.4038L46.9039 27.5672L46.3973 27.2782C45.8046 27.3584 45.1937 27.3502 44.5978 27.2948C43.4698 27.1897 42.3683 26.9056 41.3745 26.4839C41.6894 26.4541 42.0023 26.4112 42.3102 26.3523C43.6972 26.0873 45.2577 25.3979 45.4752 24.2042C45.5052 24.0396 45.5054 23.8726 45.4756 23.708C45.4361 23.4898 45.3436 23.2785 45.2087 23.0844C45.0397 22.8413 44.8064 22.6269 44.5373 22.4456C43.9996 22.0833 43.3293 21.8523 42.6439 21.71C41.5598 21.4848 40.4127 21.4682 39.3001 21.5503Z" fill="black" fill-opacity="0.1"/>
<path fill-rule="evenodd" clip-rule="evenodd" d="M39.3001 21.5503C37.4523 21.6867 35.5831 21.7309 33.7344 21.5789C32.6982 21.4937 31.6788 21.3371 30.6694 21.1401C30.9931 21.6796 31.264 22.2345 31.42 22.8178C31.7063 23.8877 31.6309 24.9946 31.3882 26.0647C31.2719 26.5776 31.276 27.1124 31.4807 27.6122C31.8767 28.5787 32.9796 29.2169 34.2215 29.4672C36.2038 29.8667 38.7564 29.3833 39.7378 27.8882C39.8707 27.6856 39.9695 27.4702 40.0339 27.2487C40.1946 27.372 40.3476 27.5012 40.4909 27.6366C41.1914 28.2988 41.7859 29.2473 41.4263 30.1145L41.9325 30.4038C42.761 29.931 46.0752 28.04 46.9038 27.5671C46.7349 27.4708 46.5661 27.3745 46.3972 27.2781C45.8045 27.3583 45.1936 27.3502 44.5977 27.2947C43.4697 27.1896 42.3682 26.9055 41.3745 26.4839C41.6893 26.454 42.0022 26.4111 42.3101 26.3522C43.6971 26.0872 45.2576 25.3978 45.4751 24.2042C45.5051 24.0395 45.5053 23.8725 45.4756 23.7079C45.436 23.4898 45.3435 23.2784 45.2086 23.0844C45.0396 22.8412 44.8063 22.6268 44.5372 22.4455C43.9995 22.0832 43.3292 21.8522 42.6438 21.7099C41.5597 21.4848 40.4126 21.4681 39.3001 21.5503Z" fill="white" stroke="#2D2D2D" stroke-width="0.607401" stroke-miterlimit="2" stroke-linejoin="round"/>
<path fill-rule="evenodd" clip-rule="evenodd" d="M31.5073 25.4482C34.7285 26.5171 38.3454 27.0489 41.652 26.5963C42.5972 26.9652 43.5903 27.2005 44.602 27.2952C45.198 27.351 45.809 27.359 46.4021 27.2786L46.9087 27.5676L41.9359 30.4047L41.4293 30.1151C41.7893 29.2481 41.1945 28.2996 40.4935 27.6372C40.3479 27.5004 40.1954 27.371 40.0365 27.2496C39.9701 27.476 39.8701 27.6915 39.7399 27.8891C38.7585 29.3843 36.2049 29.8677 34.2219 29.4681C32.9797 29.2179 31.876 28.5795 31.4802 27.6127C31.2754 27.1128 31.2713 26.578 31.3873 26.065C31.434 25.8609 31.4744 25.6552 31.5073 25.4482Z" fill="black" fill-opacity="0.1"/>
<defs>
<linearGradient id="paint0_linear_45_423" x1="27.984" y1="27.1199" x2="53.6583" y2="62.7456" gradientUnits="userSpaceOnUse">
<stop stop-color="#0403E5"/>
<stop offset="1" stop-color="#01EBFF"/>
</linearGradient>
<linearGradient id="paint1_linear_45_423" x1="60.3135" y1="34.4459" x2="15.4975" y2="34.4459" gradientUnits="userSpaceOnUse">
<stop stop-color="#0503E3" stop-opacity="0.8"/>
<stop offset="1" stop-color="#00EDFE" stop-opacity="0.8"/>
</linearGradient>
</defs>
</svg>
