<svg width="197" height="97" viewBox="0 0 197 97" fill="none" xmlns="http://www.w3.org/2000/svg">
<g clip-path="url(#clip0_45_349)">
<mask id="mask0_45_349" style="mask-type:luminance" maskUnits="userSpaceOnUse" x="0" y="0" width="197" height="97">
<path d="M0 0.377869H196.563V96.354H0V0.377869Z" fill="white"/>
</mask>
<g mask="url(#mask0_45_349)">
<path fill-rule="evenodd" clip-rule="evenodd" d="M145.849 26.7753C145.294 26.4536 144.663 26.2842 144.021 26.2842C143.379 26.2842 142.749 26.4536 142.193 26.7753L125.371 36.5137C125.093 36.6745 124.862 36.9058 124.701 37.1845C124.541 37.4632 124.456 37.7794 124.456 38.1012C124.456 38.4231 124.541 38.7393 124.701 39.0179C124.862 39.2966 125.093 39.528 125.371 39.6888L142.193 49.4271C142.749 49.7489 143.379 49.9182 144.021 49.9182C144.663 49.9182 145.294 49.7489 145.849 49.4271L162.672 39.6888C162.95 39.5278 163.18 39.2964 163.341 39.0177C163.501 38.7391 163.586 38.423 163.586 38.1012C163.586 37.7795 163.501 37.4634 163.341 37.1847C163.18 36.9061 162.95 36.6746 162.672 36.5137L145.849 26.7753Z" fill="url(#paint0_linear_45_349)"/>
<path fill-rule="evenodd" clip-rule="evenodd" d="M145.849 26.7753L162.672 36.5137C162.95 36.6746 163.18 36.9061 163.341 37.1847C163.501 37.4634 163.586 37.7795 163.586 38.1012C163.586 38.423 163.501 38.7391 163.341 39.0177C163.18 39.2964 162.95 39.5278 162.672 39.6888L145.849 49.4271C145.294 49.7489 144.663 49.9182 144.021 49.9182C143.379 49.9182 142.749 49.7489 142.193 49.4271L125.371 39.6888C125.093 39.528 124.862 39.2966 124.701 39.0179C124.541 38.7393 124.456 38.4231 124.456 38.1012C124.456 37.7794 124.541 37.4632 124.701 37.1845C124.862 36.9058 125.093 36.6745 125.371 36.5137L142.193 26.7753C142.749 26.4536 143.379 26.2842 144.021 26.2842C144.663 26.2842 145.294 26.4536 145.849 26.7753ZM145.735 26.9739C145.214 26.6721 144.623 26.5132 144.021 26.5132C143.419 26.5132 142.828 26.6721 142.307 26.9739L125.485 36.7122C125.242 36.853 125.04 37.0555 124.9 37.2993C124.759 37.5431 124.685 37.8197 124.685 38.1012C124.685 38.3828 124.759 38.6594 124.9 38.9032C125.04 39.147 125.242 39.3495 125.485 39.4902L142.307 49.2286C142.828 49.5304 143.419 49.6893 144.021 49.6893C144.623 49.6893 145.214 49.5304 145.735 49.2286L162.557 39.4902C162.8 39.3496 163.002 39.1471 163.143 38.9033C163.283 38.6595 163.357 38.3828 163.357 38.1012C163.357 37.8196 163.283 37.543 163.143 37.2992C163.002 37.0554 162.8 36.8529 162.557 36.7122L145.735 26.9739Z" fill="white" fill-opacity="0.25"/>
<path fill-rule="evenodd" clip-rule="evenodd" d="M145.849 22.2702C145.294 21.9484 144.663 21.7791 144.021 21.7791C143.379 21.7791 142.749 21.9484 142.193 22.2702L125.371 32.0086C125.093 32.1693 124.862 32.4007 124.701 32.6794C124.541 32.9581 124.456 33.2742 124.456 33.5961C124.456 33.9179 124.541 34.2341 124.701 34.5128C124.862 34.7915 125.093 35.0228 125.371 35.1836L142.193 44.922C142.749 45.2437 143.379 45.4131 144.021 45.4131C144.663 45.4131 145.294 45.2437 145.849 44.922L162.672 35.1836C162.95 35.0227 163.18 34.7913 163.341 34.5126C163.501 34.2339 163.586 33.9178 163.586 33.5961C163.586 33.2743 163.501 32.9582 163.341 32.6796C163.18 32.4009 162.95 32.1695 162.672 32.0086L145.849 22.2702Z" fill="url(#paint1_linear_45_349)"/>
<path fill-rule="evenodd" clip-rule="evenodd" d="M145.849 22.2702L162.672 32.0086C162.95 32.1695 163.18 32.4009 163.341 32.6796C163.501 32.9582 163.586 33.2743 163.586 33.5961C163.586 33.9178 163.501 34.2339 163.341 34.5126C163.18 34.7913 162.95 35.0227 162.672 35.1836L145.849 44.922C145.294 45.2437 144.663 45.4131 144.021 45.4131C143.379 45.4131 142.749 45.2437 142.193 44.922L125.371 35.1836C125.093 35.0228 124.862 34.7915 124.701 34.5128C124.541 34.2341 124.456 33.9179 124.456 33.5961C124.456 33.2742 124.541 32.9581 124.701 32.6794C124.862 32.4007 125.093 32.1693 125.371 32.0086L142.193 22.2702C142.749 21.9484 143.379 21.7791 144.021 21.7791C144.663 21.7791 145.294 21.9484 145.849 22.2702ZM145.735 22.4687C145.214 22.1669 144.623 22.0081 144.021 22.0081C143.419 22.0081 142.828 22.1669 142.307 22.4687L125.485 32.2071C125.242 32.3478 125.04 32.5503 124.9 32.7941C124.759 33.0379 124.685 33.3145 124.685 33.5961C124.685 33.8776 124.759 34.1542 124.9 34.398C125.04 34.6418 125.242 34.8443 125.485 34.9851L142.307 44.7234C142.828 45.0252 143.419 45.1841 144.021 45.1841C144.623 45.1841 145.214 45.0252 145.735 44.7234L162.557 34.9851C162.8 34.8444 163.002 34.642 163.143 34.3981C163.283 34.1543 163.357 33.8777 163.357 33.5961C163.357 33.3145 163.283 33.0379 163.143 32.794C163.002 32.5502 162.8 32.3478 162.557 32.2071L145.735 22.4687Z" fill="white" fill-opacity="0.25"/>
<path fill-rule="evenodd" clip-rule="evenodd" d="M43.3094 16.8709C43.2507 16.9284 43.1753 16.9674 43.0931 16.9826C43.011 16.9978 42.926 16.9885 42.8494 16.956C42.6929 16.8893 42.5914 16.7354 42.5914 16.5648V1.75293C42.5914 1.38832 42.7358 1.03865 42.9931 0.780764C43.1182 0.653994 43.2687 0.552967 43.4353 0.483755C43.6019 0.414544 43.7812 0.378575 43.9626 0.378006H53.7026C54.4599 0.378006 55.0738 0.993662 55.0738 1.75293V11.0606C55.0738 11.4252 54.9294 11.7751 54.6721 12.0328C54.5469 12.1595 54.3965 12.2606 54.2299 12.3298C54.0633 12.399 53.884 12.435 53.7026 12.4355H48.4542C48.2772 12.436 48.1021 12.4703 47.9388 12.5363C47.7755 12.6023 47.6273 12.6988 47.5028 12.8203L43.3094 16.8709Z" fill="url(#paint2_linear_45_349)"/>
<path fill-rule="evenodd" clip-rule="evenodd" d="M51.1775 12.4354H48.4529C48.0977 12.4354 47.7567 12.5734 47.5012 12.82L43.308 16.8705C43.2483 16.9286 43.1727 16.9678 43.0909 16.9832C43.009 16.9985 42.9244 16.9892 42.8478 16.9566C42.7711 16.924 42.7058 16.8694 42.6599 16.7997C42.614 16.73 42.5897 16.6483 42.5899 16.5648V1.75279C42.5899 1.73217 42.5904 1.71154 42.5913 1.69138C42.6718 6.90873 46.3092 11.2677 51.1775 12.4354Z" fill="black" fill-opacity="0.1"/>
<path fill-rule="evenodd" clip-rule="evenodd" d="M48.2613 16.09C48.4752 15.8755 48.7291 15.7054 49.0085 15.5893C49.2879 15.4732 49.5874 15.4135 49.8899 15.4135H53.6375C54.0011 15.4135 54.3499 15.5584 54.6071 15.8162C54.8642 16.0741 55.0087 16.4238 55.0087 16.7884V50.0491C55.0088 50.2297 54.9734 50.4085 54.9046 50.5754C54.8357 50.7423 54.7347 50.8939 54.6073 51.0216C54.48 51.1493 54.3288 51.2505 54.1624 51.3196C53.9959 51.3886 53.8176 51.4241 53.6375 51.424H44.0151C43.6514 51.424 43.3027 51.2791 43.0455 51.0213C42.7883 50.7635 42.6439 50.4137 42.6439 50.0491V22.2922C42.6439 21.9274 42.7883 21.5777 43.0452 21.3197L48.2613 16.09ZM76.9712 51.259C76.7642 51.1651 76.5369 51.1247 76.3103 51.1417C76.0836 51.1586 75.8648 51.2323 75.674 51.3561C75.4831 51.4798 75.3263 51.6496 75.2179 51.8499C75.1094 52.0501 75.0529 52.2745 75.0533 52.5024C75.0565 60.6318 75.1141 88.4267 75.1278 94.9493C75.128 95.1301 75.0927 95.3091 75.0239 95.4761C74.9551 95.6432 74.8541 95.795 74.7268 95.9229C74.5995 96.0508 74.4482 96.1524 74.2818 96.2217C74.1153 96.291 73.9369 96.3268 73.7566 96.327H64.1374C63.9573 96.327 63.779 96.2914 63.6126 96.2223C63.4462 96.1532 63.295 96.0519 63.1677 95.9241C63.0403 95.7964 62.9393 95.6448 62.8705 95.4779C62.8016 95.3111 62.7661 95.1322 62.7662 94.9516L62.7987 16.7884C62.7989 16.424 62.9435 16.0745 63.2006 15.8168C63.4577 15.5592 63.8064 15.4144 64.1699 15.4144H70.3925C70.6392 15.4144 70.8813 15.4811 71.0934 15.6075C71.3054 15.7339 71.4795 15.9153 71.5974 16.1326L71.9882 16.854C72.0817 17.0266 72.2111 17.177 72.3675 17.2953C72.5239 17.4135 72.7038 17.4968 72.895 17.5395C73.0862 17.5822 73.2843 17.5833 73.476 17.5428C73.6677 17.5022 73.8484 17.421 74.0062 17.3045C76.7464 15.3406 80.0908 14.2334 83.7849 14.2334C94.7698 14.2334 102.616 22.1955 102.616 33.4236C102.616 44.6434 94.7698 52.6431 83.7849 52.6431C81.334 52.6431 79.0391 52.1564 76.9712 51.259ZM82.1289 41.6657C86.7376 41.6657 90.1748 38.1528 90.1748 33.419C90.1748 28.6847 86.7664 25.1718 82.1289 25.1718C77.4918 25.1718 74.0843 28.6847 74.0843 33.419C74.0843 38.1528 77.4918 41.6657 82.1289 41.6657ZM42.27 59.2565C49.9612 59.2565 55.0722 65.2681 55.0722 73.7481V94.9525C55.0722 95.3172 54.9278 95.6669 54.6706 95.9248C54.4135 96.1826 54.0647 96.3275 53.701 96.3275H44.0786C43.715 96.3275 43.3662 96.1826 43.109 95.9248C42.8519 95.6669 42.7074 95.3172 42.7074 94.9525V75.2816C42.7074 71.5217 41.3211 69.7077 38.6824 69.7077C35.2689 69.7077 33.5188 72.0551 33.5188 76.5882V94.9525C33.5188 95.3174 33.3744 95.667 33.1175 95.9251C32.8601 96.1827 32.5113 96.3274 32.1476 96.3275H22.8579C22.4943 96.3275 22.1455 96.1826 21.8883 95.9248C21.6312 95.6669 21.4867 95.3172 21.4867 94.9525V75.2816C21.4867 71.6348 20.1205 69.7077 17.5394 69.7077C14.1973 69.7077 12.3648 72.1115 12.3648 76.5827V94.9525C12.3648 95.3172 12.2204 95.6669 11.9632 95.9248C11.7061 96.1826 11.3573 96.3275 10.9936 96.3275H1.37123C1.00756 96.3275 0.658779 96.1826 0.401624 95.9248C0.144468 95.6669 0 95.3172 0 94.9525L0 61.6924C0 61.3277 0.144468 60.978 0.401624 60.7201C0.658779 60.4623 1.00756 60.3174 1.37123 60.3174H7.81235C8.34987 60.3174 8.83757 60.6318 9.06017 61.1222L9.62877 62.3739C9.71796 62.5703 9.85203 62.7429 10.0201 62.8777C10.1882 63.0125 10.3856 63.1057 10.5963 63.1498C10.807 63.1939 11.0251 63.1876 11.2329 63.1315C11.4408 63.0753 11.6325 62.9709 11.7926 62.8267C14.2612 60.5979 17.4626 59.2565 20.924 59.2565C24.7214 59.2565 27.9987 60.745 30.2571 63.3198C30.3806 63.4611 30.5318 63.5754 30.7012 63.6556C30.8707 63.7358 31.0548 63.7801 31.2421 63.7858C31.4294 63.7916 31.6159 63.7586 31.7899 63.6889C31.9639 63.6192 32.1218 63.5143 32.2536 63.3808C34.8068 60.8161 38.3487 59.2565 42.27 59.2565ZM104.596 59.25C112.927 59.25 118.402 65.1759 118.402 74.343V94.9525C118.402 95.3172 118.258 95.6669 118 95.9248C117.743 96.1826 117.394 96.3275 117.031 96.3275H107.408C107.045 96.3275 106.696 96.1826 106.439 95.9248C106.182 95.6669 106.037 95.3172 106.037 94.9525V76.0589C106.037 71.8622 104.473 69.7805 101.372 69.7805C97.5296 69.7805 95.3187 72.4855 95.3187 77.0979V94.9525C95.3187 95.3172 95.1743 95.6669 94.9171 95.9248C94.66 96.1826 94.3112 96.3275 93.9475 96.3275H84.3251C83.9615 96.3275 83.6127 96.1826 83.3555 95.9248C83.0984 95.6669 82.9539 95.3172 82.9539 94.9525V61.6919C82.9539 61.3272 83.0984 60.9775 83.3555 60.7197C83.6127 60.4618 83.9615 60.317 84.3251 60.317H90.7503C91.2855 60.317 91.7718 60.6295 91.9958 61.1167L92.5265 62.2717C92.6162 62.4669 92.7503 62.6383 92.918 62.7721C93.0858 62.906 93.2825 62.9985 93.4924 63.0423C93.7023 63.0861 93.9195 63.08 94.1265 63.0244C94.3336 62.9688 94.5248 62.8653 94.6848 62.7222C97.2549 60.5209 100.692 59.25 104.596 59.25ZM165.361 76.8261L165.36 76.8275C165.36 77.5067 165.323 78.1859 165.256 78.872C165.223 79.2115 165.065 79.5266 164.813 79.7558C164.561 79.9849 164.233 80.1118 163.893 80.1117C159.631 80.1131 145.317 80.1131 140.237 80.1131C140.011 80.113 139.789 80.169 139.589 80.2762C139.39 80.3833 139.22 80.5382 139.095 80.7271C138.97 80.9159 138.893 81.1329 138.872 81.3587C138.851 81.5844 138.886 81.812 138.973 82.021C140.151 84.9005 142.51 86.3841 145.765 86.3841C148.379 86.3841 150.605 85.3446 151.887 83.5847C152.012 83.4079 152.179 83.2638 152.371 83.1644C152.564 83.065 152.778 83.0132 152.994 83.0132C154.863 83.0045 159.841 83.0045 162.623 83.0045C162.848 83.0044 163.071 83.0602 163.27 83.1668C163.469 83.2734 163.638 83.4276 163.764 83.6157C163.889 83.8039 163.966 84.0201 163.988 84.2452C164.01 84.4704 163.976 84.6975 163.89 84.9065C160.879 92.0052 154.061 96.354 145.765 96.354C134.556 96.354 126.253 88.1467 126.253 77.1405C126.253 66.0948 134.49 57.9824 145.765 57.9824C157.344 57.9824 165.361 66.2585 165.361 76.8261ZM145.764 67.6952C142.615 67.6952 140.304 69.1935 139.102 71.9566C139.041 72.095 139.016 72.2465 139.028 72.3972C139.041 72.548 139.09 72.6932 139.173 72.8199C139.255 72.9466 139.368 73.0507 139.5 73.1228C139.633 73.1949 139.781 73.2328 139.932 73.233C142.676 73.2398 149.09 73.2398 151.86 73.2398C152.013 73.2398 152.165 73.201 152.299 73.1268C152.434 73.0526 152.548 72.9455 152.631 72.8154C152.713 72.6853 152.762 72.5364 152.772 72.3825C152.782 72.2287 152.753 72.0747 152.688 71.935C151.404 69.1724 149.02 67.6952 145.764 67.6952ZM193.285 60.1172H195.191C195.555 60.1172 195.904 60.262 196.161 60.5199C196.418 60.7777 196.563 61.1274 196.563 61.4921V70.0729C196.563 70.4376 196.418 70.7873 196.161 71.0452C195.904 71.303 195.555 71.4479 195.191 71.4479H191.759C187.378 71.4479 185.543 73.3778 185.543 77.9796V94.9525C185.543 95.3174 185.399 95.667 185.142 95.9251C184.885 96.1827 184.536 96.3274 184.172 96.3275H174.55C174.186 96.3275 173.837 96.1826 173.58 95.9248C173.323 95.6669 173.179 95.3172 173.179 94.9525V61.6924C173.179 61.3277 173.323 60.978 173.58 60.7201C173.837 60.4623 174.186 60.3174 174.55 60.3174H180.606C180.863 60.3174 181.115 60.3897 181.332 60.526C181.55 60.6624 181.726 60.8574 181.838 61.0888L182.55 62.5485C182.642 62.7377 182.776 62.9032 182.942 63.0322C183.108 63.1612 183.301 63.2501 183.507 63.2923C183.713 63.3344 183.926 63.3285 184.129 63.2751C184.332 63.2217 184.52 63.1222 184.679 62.9843C186.959 60.9783 189.705 60.1172 193.285 60.1172ZM30.0409 40.5608H33.4187C33.7824 40.5608 34.1311 40.7056 34.3883 40.9635C34.6455 41.2213 34.7899 41.571 34.7899 41.9357V50.0496C34.7899 50.4142 34.6455 50.7639 34.3883 51.0218C34.1311 51.2796 33.7824 51.4245 33.4187 51.4245H26.2769C18.3379 51.4245 13.513 46.5563 13.513 38.5511V26.3189C13.513 25.9543 13.3685 25.6046 13.1114 25.3467C12.8542 25.0889 12.5055 24.944 12.1418 24.944H8.30919C7.94552 24.944 7.59674 24.7991 7.33959 24.5413C7.08243 24.2835 6.93796 23.9337 6.93796 23.5691V22.5961C6.93796 22.246 7.07097 21.9096 7.31003 21.6547L22.6193 5.31705C22.7476 5.18015 22.9025 5.07105 23.0744 4.99648C23.2463 4.92191 23.4317 4.88346 23.619 4.88348H24.1739C24.5375 4.88348 24.8863 5.02835 25.1435 5.28619C25.4006 5.54404 25.5451 5.89375 25.5451 6.2584V14.0395C25.5451 14.4042 25.6896 14.7539 25.9467 15.0117C26.2039 15.2696 26.5527 15.4144 26.9163 15.4144H33.219C33.5826 15.4144 33.9314 15.5593 34.1886 15.8171C34.4457 16.075 34.5902 16.4247 34.5902 16.7894V23.5691C34.5902 23.9337 34.4457 24.2835 34.1886 24.5413C33.9314 24.7991 33.5826 24.944 33.219 24.944H27.2491C26.8854 24.944 26.5366 25.0889 26.2795 25.3467C26.0223 25.6046 25.8778 25.9543 25.8778 26.3189V36.4204C25.8778 39.0025 27.4305 40.5608 30.0409 40.5608ZM145.849 15.2362L162.67 24.9747C162.949 25.1354 163.18 25.3668 163.34 25.6455C163.501 25.9242 163.585 26.2404 163.585 26.5623C163.585 26.8842 163.501 27.2004 163.34 27.4791C163.18 27.7578 162.949 27.9891 162.67 28.1498L145.849 37.8879C145.293 38.2097 144.662 38.3791 144.02 38.3791C143.378 38.3791 142.748 38.2097 142.192 37.8879L125.37 28.1498C125.092 27.9888 124.861 27.7573 124.701 27.4786C124.541 27.2 124.457 26.884 124.457 26.5623C124.457 26.2406 124.541 25.9246 124.701 25.6459C124.861 25.3673 125.092 25.1358 125.37 24.9747L142.192 15.2362C142.748 14.9144 143.378 14.745 144.02 14.745C144.662 14.745 145.293 14.9144 145.849 15.2362Z" fill="white"/>
<path fill-rule="evenodd" clip-rule="evenodd" d="M139.7 26.1883C142.225 27.0389 145.061 27.4633 147.653 27.1035C147.684 27.0991 147.716 27.1029 147.745 27.1145C148.478 27.4045 149.248 27.5897 150.032 27.6645C150.491 27.708 150.96 27.7145 151.417 27.6521C151.457 27.6467 151.498 27.6548 151.533 27.6751L151.934 27.9074C151.962 27.9235 151.985 27.9466 152.001 27.9745C152.017 28.0024 152.026 28.034 152.026 28.0662C152.026 28.0984 152.017 28.13 152.001 28.1579C151.985 28.1858 151.962 28.2089 151.934 28.225L147.995 30.5055C147.967 30.5217 147.935 30.5302 147.903 30.5302C147.871 30.5302 147.839 30.5217 147.811 30.5055L147.41 30.2732C147.372 30.251 147.343 30.2156 147.329 30.1737C147.315 30.1317 147.316 30.086 147.333 30.0449C147.456 29.7434 147.41 29.4281 147.279 29.1302C147.137 28.8071 146.895 28.5041 146.634 28.2543C146.585 28.2073 146.534 28.1611 146.483 28.1159C146.436 28.223 146.381 28.326 146.317 28.4239C145.986 28.9359 145.445 29.3126 144.806 29.5546C143.874 29.907 142.73 29.973 141.755 29.7736C140.707 29.5591 139.785 28.9991 139.45 28.1714C139.274 27.7342 139.268 27.2667 139.368 26.818C139.404 26.6576 139.435 26.4958 139.46 26.3336C139.465 26.3073 139.475 26.2823 139.49 26.2603C139.505 26.2382 139.524 26.2197 139.547 26.2059C139.569 26.1921 139.595 26.1834 139.621 26.1803C139.648 26.1773 139.674 26.18 139.7 26.1883ZM139.641 26.362C139.615 26.5284 139.583 26.6938 139.546 26.8579C139.455 27.2704 139.458 27.7003 139.62 28.1022C139.934 28.8795 140.808 29.3928 141.792 29.594C143.363 29.9152 145.386 29.5266 146.163 28.3245C146.267 28.1656 146.346 27.9923 146.398 27.8102C146.525 27.9092 146.647 28.0133 146.76 28.1219C147.316 28.6545 147.787 29.4171 147.502 30.1142L147.903 30.347L151.843 28.066L151.441 27.8336C150.971 27.8982 150.487 27.8918 150.015 27.8469C149.214 27.7708 148.427 27.5816 147.678 27.285C145.059 27.6489 142.193 27.2213 139.641 26.362Z" fill="black" fill-opacity="0.02"/>
<path fill-rule="evenodd" clip-rule="evenodd" d="M149.247 27.272C149.513 27.3248 149.783 27.3646 150.055 27.3903C150.492 27.4317 150.941 27.4389 151.376 27.3792C151.476 27.3655 151.578 27.3856 151.666 27.4364L152.067 27.6688C152.209 27.7507 152.296 27.9019 152.296 28.0656C152.296 28.2294 152.209 28.3807 152.067 28.4626L148.129 30.7432C147.987 30.8251 147.813 30.8251 147.672 30.743L147.271 30.5104C147.073 30.3957 146.99 30.152 147.077 29.9399C147.171 29.7093 147.126 29.4687 147.026 29.2408C146.918 28.9953 146.744 28.7639 146.552 28.5624L146.545 28.5731C146.184 29.1314 145.599 29.5475 144.901 29.8112C143.923 30.1812 142.723 30.2516 141.7 30.0423C140.556 29.8082 139.562 29.1779 139.197 28.2738C138.999 27.7839 138.989 27.2601 139.101 26.7574C139.278 25.9687 139.339 25.1529 139.131 24.3643C139.018 23.9356 138.819 23.5286 138.585 23.1321C138.493 22.9766 138.501 22.7814 138.605 22.6338C138.709 22.4862 138.889 22.4137 139.066 22.4487C139.849 22.6038 140.64 22.7273 141.444 22.7944C142.884 22.9146 144.341 22.879 145.781 22.7711C146.705 22.7018 147.658 22.7182 148.558 22.9079C149.161 23.035 149.748 23.2458 150.221 23.5692C150.483 23.7482 150.708 23.962 150.873 24.202C151.017 24.4134 151.115 24.6444 151.157 24.8819C151.19 25.0681 151.19 25.2569 151.157 25.443C151.068 25.936 150.773 26.3537 150.346 26.6853C150.036 26.9264 149.652 27.1219 149.247 27.272ZM145.815 23.2281C144.351 23.3378 142.87 23.3733 141.406 23.2511C140.585 23.1826 139.777 23.0567 138.978 22.8983C139.234 23.332 139.449 23.7782 139.572 24.2471C139.799 25.1074 139.739 25.9973 139.547 26.8577C139.455 27.27 139.458 27.7 139.62 28.1019C139.934 28.8789 140.808 29.392 141.792 29.5933C143.362 29.9145 145.384 29.5259 146.162 28.3238C146.267 28.1609 146.345 27.9877 146.396 27.8096C146.524 27.9087 146.645 28.0126 146.758 28.1215C147.313 28.6539 147.784 29.4165 147.5 30.1137L147.901 30.3463L151.839 28.0656L151.438 27.8333C150.968 27.8977 150.484 27.8912 150.012 27.8466C149.118 27.7621 148.246 27.5337 147.458 27.1947C147.708 27.1707 147.956 27.1362 148.2 27.0889C149.298 26.8758 150.535 26.3215 150.707 25.3618C150.731 25.2295 150.731 25.0952 150.707 24.9628C150.676 24.7874 150.603 24.6175 150.496 24.4615C150.362 24.266 150.177 24.0936 149.964 23.9478C149.538 23.6566 149.007 23.4708 148.464 23.3564C147.605 23.1754 146.696 23.162 145.815 23.2281Z" fill="black" fill-opacity="0.1"/>
<path fill-rule="evenodd" clip-rule="evenodd" d="M145.815 23.2281C144.351 23.3378 142.87 23.3733 141.406 23.2511C140.585 23.1826 139.777 23.0567 138.978 22.8983C139.234 23.332 139.449 23.7782 139.572 24.2471C139.799 25.1074 139.739 25.9973 139.547 26.8577C139.455 27.27 139.458 27.7 139.62 28.1019C139.934 28.8789 140.808 29.392 141.792 29.5933C143.362 29.9145 145.384 29.5259 146.162 28.3238C146.267 28.1609 146.345 27.9877 146.396 27.8096C146.524 27.9087 146.645 28.0126 146.758 28.1215C147.313 28.6539 147.784 29.4165 147.5 30.1137L147.901 30.3463C148.557 29.9661 151.182 28.4458 151.839 28.0656C151.705 27.9882 151.571 27.9108 151.438 27.8333C150.968 27.8977 150.484 27.8912 150.012 27.8466C149.118 27.7621 148.246 27.5337 147.458 27.1947C147.708 27.1707 147.956 27.1362 148.2 27.0889C149.299 26.8758 150.535 26.3215 150.707 25.3618C150.731 25.2295 150.731 25.0952 150.707 24.9628C150.676 24.7874 150.603 24.6175 150.496 24.4615C150.362 24.266 150.177 24.0936 149.964 23.9478C149.538 23.6566 149.007 23.4708 148.464 23.3564C147.605 23.1754 146.696 23.162 145.815 23.2281Z" fill="black" stroke="#2D2D2D" stroke-width="0.984368" stroke-miterlimit="2" stroke-linejoin="round"/>
<path fill-rule="evenodd" clip-rule="evenodd" d="M139.641 26.362C142.193 27.2213 145.059 27.6489 147.678 27.285C148.427 27.5816 149.214 27.7708 150.015 27.8469C150.487 27.8918 150.971 27.8982 151.441 27.8336L151.843 28.066L147.903 30.347L147.502 30.1142C147.787 29.4171 147.316 28.6545 146.76 28.1219C146.645 28.0119 146.524 27.9079 146.398 27.8102C146.346 27.9923 146.267 28.1656 146.163 28.3245C145.386 29.5266 143.363 29.9152 141.792 29.594C140.808 29.3928 139.934 28.8795 139.62 28.1022C139.458 27.7003 139.455 27.2704 139.546 26.8579C139.583 26.6938 139.615 26.5284 139.641 26.362Z" fill="black" fill-opacity="0.1"/>
</g>
</g>
<defs>
<linearGradient id="paint0_linear_45_349" x1="136.85" y1="27.706" x2="157.587" y2="56.0585" gradientUnits="userSpaceOnUse">
<stop stop-color="#0403E5"/>
<stop offset="1" stop-color="#01EBFF"/>
</linearGradient>
<linearGradient id="paint1_linear_45_349" x1="162.462" y1="33.5961" x2="126.958" y2="33.5961" gradientUnits="userSpaceOnUse">
<stop stop-color="#0503E3" stop-opacity="0.8"/>
<stop offset="1" stop-color="#00EDFE" stop-opacity="0.8"/>
</linearGradient>
<linearGradient id="paint2_linear_45_349" x1="42.5914" y1="17.7842" x2="55.0178" y2="0.409384" gradientUnits="userSpaceOnUse">
<stop stop-color="#01ECFE"/>
<stop offset="1" stop-color="#0403E5"/>
</linearGradient>
<clipPath id="clip0_45_349">
<rect width="197" height="96.2443" fill="white" transform="translate(0 0.377869)"/>
</clipPath>
</defs>
</svg>
