<svg width="22" height="23" viewBox="0 0 22 23" fill="none" xmlns="http://www.w3.org/2000/svg">
<path d="M15.5739 4.56424C16.1249 4.56424 16.6534 4.34533 17.0431 3.95567C17.4327 3.56601 17.6516 3.03752 17.6516 2.48646C17.6516 1.9354 17.4327 1.40691 17.0431 1.01726C16.6534 0.627599 16.1249 0.408691 15.5739 0.408691C15.0228 0.408691 14.4943 0.627599 14.1047 1.01726C13.715 1.40691 13.4961 1.9354 13.4961 2.48646C13.4961 3.03752 13.715 3.56601 14.1047 3.95567C14.4943 4.34533 15.0228 4.56424 15.5739 4.56424ZM11.8339 19.0048L12.8728 14.4337L15.0544 16.5114V22.7447H17.1322V14.9531L14.9505 12.8753L15.5739 9.75867C17.0179 11.4105 19.0957 12.3559 21.2877 12.3559V10.2781C19.4593 10.3093 17.7555 9.3535 16.8205 7.78478L15.7816 6.12257C15.4076 5.49923 14.7428 5.08368 14.0155 5.08368C13.7039 5.08368 13.4961 5.18757 13.1844 5.18757L7.78221 7.47312V12.3559H9.85999V8.82367L11.73 8.09645L10.0678 16.5114L4.97722 15.4725L4.56167 17.5503L11.8339 19.0048ZM2.58778 8.20034C2.31225 8.20034 2.04801 8.09088 1.85318 7.89605C1.65835 7.70123 1.5489 7.43698 1.5489 7.16145C1.5489 6.88592 1.65835 6.62168 1.85318 6.42685C2.04801 6.23202 2.31225 6.12257 2.58778 6.12257H5.70444V8.20034H2.58778ZM3.62667 4.04479C3.35114 4.04479 3.08689 3.93534 2.89207 3.74051C2.69724 3.54568 2.58778 3.28144 2.58778 3.00591C2.58778 2.73038 2.69724 2.46613 2.89207 2.2713C3.08689 2.07647 3.35114 1.96702 3.62667 1.96702H8.8211V4.04479H3.62667ZM1.5489 12.3559C1.27337 12.3559 1.00912 12.2464 0.814292 12.0516C0.619464 11.8568 0.51001 11.5925 0.51001 11.317C0.51001 11.0415 0.619464 10.7772 0.814292 10.5824C1.00912 10.3876 1.27337 10.2781 1.5489 10.2781H5.70444V12.3559H1.5489Z" fill="#02C1E3"/>
</svg>
