<svg width="249" height="120" viewBox="0 0 249 120" fill="none" xmlns="http://www.w3.org/2000/svg">
<mask id="mask0_45_416" style="mask-type:alpha" maskUnits="userSpaceOnUse" x="145" y="7" width="70" height="63">
<rect x="145.246" y="7.53418" width="69.7263" height="61.7047" fill="#D9D9D9"/>
</mask>
<g mask="url(#mask0_45_416)">
<mask id="mask1_45_416" style="mask-type:luminance" maskUnits="userSpaceOnUse" x="0" y="0" width="249" height="120">
<path d="M0.240112 0.129639H248.358V119.503H0.240112V0.129639Z" fill="white"/>
</mask>
<g mask="url(#mask1_45_416)">
<path fill-rule="evenodd" clip-rule="evenodd" d="M184.344 32.9624C183.642 32.5622 182.846 32.3516 182.036 32.3516C181.225 32.3516 180.429 32.5622 179.728 32.9624L158.494 45.0748C158.143 45.2748 157.851 45.5626 157.649 45.9092C157.446 46.2558 157.339 46.6491 157.339 47.0494C157.339 47.4497 157.446 47.8429 157.649 48.1896C157.851 48.5362 158.143 48.824 158.494 49.0239L179.728 61.1364C180.429 61.5365 181.225 61.7472 182.036 61.7472C182.846 61.7472 183.642 61.5365 184.344 61.1364L205.578 49.0239C205.929 48.8238 206.22 48.5359 206.423 48.1893C206.625 47.8427 206.732 47.4496 206.732 47.0494C206.732 46.6492 206.625 46.256 206.423 45.9094C206.22 45.5628 205.929 45.275 205.578 45.0748L184.344 32.9624Z" fill="url(#paint0_linear_45_416)"/>
<path fill-rule="evenodd" clip-rule="evenodd" d="M184.344 32.9624L205.578 45.0748C205.929 45.275 206.22 45.5628 206.423 45.9094C206.625 46.256 206.732 46.6492 206.732 47.0494C206.732 47.4496 206.625 47.8427 206.423 48.1893C206.22 48.5359 205.929 48.8238 205.578 49.0239L184.344 61.1364C183.642 61.5365 182.846 61.7472 182.036 61.7472C181.225 61.7472 180.429 61.5365 179.728 61.1364L158.494 49.0239C158.143 48.824 157.851 48.5362 157.649 48.1896C157.446 47.8429 157.339 47.4497 157.339 47.0494C157.339 46.6491 157.446 46.2558 157.649 45.9092C157.851 45.5626 158.143 45.2748 158.494 45.0748L179.728 32.9624C180.429 32.5622 181.225 32.3516 182.036 32.3516C182.846 32.3516 183.642 32.5622 184.344 32.9624ZM184.199 33.2093C183.542 32.834 182.795 32.6364 182.036 32.6364C181.276 32.6364 180.53 32.834 179.872 33.2093L158.638 45.3218C158.331 45.4968 158.076 45.7487 157.899 46.0519C157.722 46.3552 157.628 46.6992 157.628 47.0494C157.628 47.3996 157.722 47.7436 157.899 48.0468C158.076 48.3501 158.331 48.6019 158.638 48.777L179.872 60.8894C180.53 61.2648 181.276 61.4624 182.036 61.4624C182.795 61.4624 183.542 61.2648 184.199 60.8894L205.433 48.777C205.74 48.602 205.995 48.3502 206.173 48.047C206.35 47.7437 206.443 47.3996 206.443 47.0494C206.443 46.6991 206.35 46.3551 206.173 46.0518C205.995 45.7485 205.74 45.4967 205.433 45.3218L184.199 33.2093Z" fill="white" fill-opacity="0.25"/>
<path fill-rule="evenodd" clip-rule="evenodd" d="M184.344 27.3589C183.642 26.9587 182.846 26.748 182.036 26.748C181.225 26.748 180.429 26.9587 179.728 27.3589L158.494 39.4713C158.143 39.6713 157.851 39.959 157.649 40.3057C157.446 40.6523 157.339 41.0455 157.339 41.4459C157.339 41.8462 157.446 42.2394 157.649 42.586C157.851 42.9327 158.143 43.2204 158.494 43.4204L179.728 55.5328C180.429 55.933 181.225 56.1437 182.036 56.1437C182.846 56.1437 183.642 55.933 184.344 55.5328L205.578 43.4204C205.929 43.2202 206.22 42.9324 206.423 42.5858C206.625 42.2392 206.732 41.8461 206.732 41.4459C206.732 41.0457 206.625 40.6525 206.423 40.3059C206.22 39.9593 205.929 39.6715 205.578 39.4713L184.344 27.3589Z" fill="url(#paint1_linear_45_416)"/>
<path fill-rule="evenodd" clip-rule="evenodd" d="M184.344 27.3589L205.578 39.4713C205.929 39.6715 206.22 39.9593 206.423 40.3059C206.625 40.6525 206.732 41.0457 206.732 41.4459C206.732 41.8461 206.625 42.2392 206.423 42.5858C206.22 42.9324 205.929 43.2202 205.578 43.4204L184.344 55.5328C183.642 55.933 182.846 56.1437 182.036 56.1437C181.225 56.1437 180.429 55.933 179.728 55.5328L158.494 43.4204C158.143 43.2204 157.851 42.9327 157.649 42.586C157.446 42.2394 157.339 41.8462 157.339 41.4459C157.339 41.0455 157.446 40.6523 157.649 40.3057C157.851 39.959 158.143 39.6713 158.494 39.4713L179.728 27.3589C180.429 26.9587 181.225 26.748 182.036 26.748C182.846 26.748 183.642 26.9587 184.344 27.3589ZM184.199 27.6058C183.542 27.2305 182.795 27.0329 182.036 27.0329C181.276 27.0329 180.53 27.2305 179.872 27.6058L158.638 39.7183C158.331 39.8933 158.076 40.1451 157.899 40.4484C157.722 40.7517 157.628 41.0957 157.628 41.4459C157.628 41.796 157.722 42.1401 157.899 42.4433C158.076 42.7466 158.331 42.9984 158.638 43.1735L179.872 55.2859C180.53 55.6612 181.276 55.8589 182.036 55.8589C182.795 55.8589 183.542 55.6612 184.199 55.2859L205.433 43.1735C205.74 42.9985 205.995 42.7467 206.173 42.4434C206.35 42.1402 206.443 41.7961 206.443 41.4459C206.443 41.0956 206.35 40.7516 206.173 40.4483C205.995 40.145 205.74 39.8932 205.433 39.7183L184.199 27.6058Z" fill="white" fill-opacity="0.25"/>
<path fill-rule="evenodd" clip-rule="evenodd" d="M61.1596 19.6721C61.4296 19.4054 61.75 19.1937 62.1028 19.0494C62.4555 18.905 62.8335 18.8307 63.2153 18.8307H67.9458C68.4049 18.8307 68.8451 19.0109 69.1697 19.3316C69.4944 19.6523 69.6767 20.0873 69.6767 20.5408V61.9099C69.6769 62.1345 69.6322 62.357 69.5453 62.5645C69.4583 62.7721 69.3308 62.9606 69.1701 63.1195C69.0093 63.2783 68.8185 63.4042 68.6084 63.4901C68.3983 63.576 68.1732 63.6202 67.9458 63.62H55.7997C55.3406 63.62 54.9003 63.4398 54.5757 63.1191C54.2511 62.7984 54.0688 62.3635 54.0688 61.9099V27.3864C54.0688 26.9326 54.2511 26.4977 54.5754 26.1768L61.1596 19.6721ZM97.3997 63.4148C97.1383 63.2979 96.8514 63.2477 96.5653 63.2688C96.2792 63.2899 96.0031 63.3816 95.7622 63.5355C95.5212 63.6894 95.3233 63.9006 95.1864 64.1497C95.0495 64.3988 94.9781 64.6779 94.9787 64.9613C94.9828 75.0726 95.0555 109.643 95.0728 117.756C95.073 117.981 95.0284 118.204 94.9416 118.411C94.8547 118.619 94.7272 118.808 94.5665 118.967C94.4058 119.126 94.2149 119.252 94.0048 119.339C93.7947 119.425 93.5694 119.469 93.3419 119.47H81.1998C80.9724 119.47 80.7473 119.425 80.5372 119.339C80.3272 119.253 80.1364 119.127 79.9756 118.969C79.8149 118.81 79.6874 118.621 79.6005 118.414C79.5135 118.206 79.4688 117.984 79.4689 117.759L79.5098 20.5408C79.5101 20.0875 79.6926 19.6528 80.0172 19.3324C80.3418 19.0119 80.7819 18.8319 81.2407 18.8319H89.0955C89.4069 18.8318 89.7125 18.9148 89.9801 19.072C90.2478 19.2292 90.4676 19.4548 90.6163 19.7251L91.1096 20.6223C91.2277 20.837 91.391 21.0242 91.5884 21.1712C91.7859 21.3183 92.0129 21.4219 92.2543 21.475C92.4956 21.5281 92.7457 21.5295 92.9877 21.4791C93.2296 21.4286 93.4578 21.3276 93.6569 21.1827C97.1158 18.7401 101.337 17.3629 106 17.3629C119.866 17.3629 129.771 27.2661 129.771 41.2314C129.771 55.1864 119.866 65.1363 106 65.1363C102.907 65.1363 100.01 64.5309 97.3997 63.4148ZM103.91 51.4828C109.728 51.4828 114.066 47.1135 114.066 41.2257C114.066 35.3372 109.764 30.9679 103.91 30.9679C98.0568 30.9679 93.7556 35.3372 93.7556 41.2257C93.7556 47.1135 98.0568 51.4828 103.91 51.4828ZM53.5968 73.3619C63.3053 73.3619 69.7569 80.839 69.7569 91.3864V117.76C69.7569 118.214 69.5745 118.649 69.2499 118.969C68.9253 119.29 68.4851 119.47 68.026 119.47H55.8799C55.4208 119.47 54.9805 119.29 54.6559 118.969C54.3313 118.649 54.149 118.214 54.149 117.76V93.2937C54.149 88.6171 52.3991 86.3609 49.0683 86.3609C44.7595 86.3609 42.5503 89.2806 42.5503 94.9188V117.76C42.5503 118.214 42.368 118.649 42.0438 118.97C41.7189 119.29 41.2785 119.47 40.8195 119.47H29.0933C28.6343 119.47 28.194 119.29 27.8694 118.969C27.5448 118.649 27.3624 118.214 27.3624 117.76V93.2937C27.3624 88.7579 25.6379 86.3609 22.3798 86.3609C18.1611 86.3609 15.848 89.3508 15.848 94.912V117.76C15.848 118.214 15.6657 118.649 15.3411 118.969C15.0165 119.29 14.5762 119.47 14.1172 119.47H1.97099C1.51194 119.47 1.07168 119.29 0.747076 118.969C0.422472 118.649 0.240112 118.214 0.240112 117.76L0.240112 76.3916C0.240112 75.9381 0.422472 75.5031 0.747076 75.1824C1.07168 74.8617 1.51194 74.6815 1.97099 74.6815H10.1015C10.78 74.6815 11.3956 75.0725 11.6766 75.6825L12.3944 77.2393C12.5069 77.4836 12.6762 77.6982 12.8883 77.8659C13.1005 78.0336 13.3497 78.1496 13.6156 78.2044C13.8816 78.2592 14.1569 78.2514 14.4192 78.1816C14.6816 78.1118 14.9236 77.9819 15.1257 77.8025C18.2419 75.0304 22.2829 73.3619 26.6522 73.3619C31.4456 73.3619 35.5824 75.2134 38.4332 78.4158C38.589 78.5916 38.7799 78.7338 38.9938 78.8335C39.2077 78.9332 39.4401 78.9883 39.6765 78.9955C39.913 79.0026 40.1483 78.9615 40.368 78.8748C40.5877 78.7881 40.7869 78.6577 40.9533 78.4916C44.1762 75.3017 48.6471 73.3619 53.5968 73.3619ZM132.269 73.3539C142.786 73.3539 149.697 80.7244 149.697 92.1263V117.76C149.697 118.214 149.515 118.649 149.19 118.969C148.866 119.29 148.425 119.47 147.966 119.47H135.82C135.361 119.47 134.921 119.29 134.596 118.969C134.271 118.649 134.089 118.214 134.089 117.76V94.2605C134.089 89.0407 132.115 86.4516 128.2 86.4516C123.35 86.4516 120.559 89.8159 120.559 95.5527V117.76C120.559 118.214 120.377 118.649 120.052 118.969C119.728 119.29 119.288 119.47 118.829 119.47H106.682C106.223 119.47 105.783 119.29 105.458 118.969C105.134 118.649 104.951 118.214 104.951 117.76V76.391C104.951 75.9375 105.134 75.5025 105.458 75.1818C105.783 74.8611 106.223 74.6809 106.682 74.6809H114.793C115.468 74.6809 116.082 75.0697 116.365 75.6756L117.035 77.1121C117.148 77.355 117.317 77.5682 117.529 77.7346C117.741 77.9011 117.989 78.0162 118.254 78.0707C118.519 78.1252 118.793 78.1175 119.055 78.0484C119.316 77.9792 119.557 77.8505 119.759 77.6725C123.003 74.9346 127.342 73.3539 132.269 73.3539ZM208.972 95.2147L208.972 95.2164C208.972 96.0612 208.925 96.906 208.84 97.7593C208.798 98.1817 208.599 98.5735 208.281 98.8586C207.963 99.1436 207.549 99.3014 207.119 99.3013C201.739 99.303 183.671 99.303 177.26 99.303C176.974 99.3029 176.693 99.3726 176.441 99.5059C176.19 99.6391 175.976 99.8318 175.818 100.067C175.66 100.302 175.563 100.571 175.536 100.852C175.509 101.133 175.553 101.416 175.664 101.676C177.15 105.258 180.128 107.103 184.237 107.103C187.537 107.103 190.347 105.81 191.964 103.621C192.123 103.401 192.333 103.222 192.576 103.098C192.819 102.975 193.089 102.91 193.363 102.91C195.721 102.899 202.005 102.899 205.516 102.899C205.801 102.899 206.081 102.969 206.333 103.101C206.584 103.234 206.798 103.426 206.956 103.66C207.114 103.894 207.212 104.162 207.24 104.443C207.267 104.723 207.225 105.005 207.116 105.265C203.315 114.094 194.709 119.503 184.237 119.503C170.089 119.503 159.608 109.295 159.608 95.6057C159.608 81.8674 170.004 71.7772 184.237 71.7772C198.852 71.7772 208.972 82.0709 208.972 95.2147ZM184.236 83.8579C180.261 83.8579 177.344 85.7214 175.826 89.1581C175.75 89.3303 175.718 89.5187 175.733 89.7062C175.749 89.8936 175.812 90.0743 175.916 90.2319C176.02 90.3895 176.162 90.5189 176.329 90.6086C176.496 90.6983 176.684 90.7454 176.874 90.7456C180.338 90.7542 188.434 90.7542 191.93 90.7542C192.124 90.7542 192.315 90.7058 192.485 90.6135C192.655 90.5213 192.799 90.3881 192.904 90.2263C193.008 90.0645 193.069 89.8793 193.082 89.6879C193.094 89.4965 193.058 89.3051 192.975 89.1313C191.355 85.6951 188.345 83.8579 184.236 83.8579ZM244.22 74.4324H246.627C247.086 74.4324 247.526 74.6126 247.851 74.9333C248.175 75.254 248.358 75.689 248.358 76.1425V86.8152C248.358 87.2688 248.175 87.7038 247.851 88.0245C247.526 88.3452 247.086 88.5253 246.627 88.5253H242.294C236.764 88.5253 234.449 90.9258 234.449 96.6495V117.76C234.449 118.214 234.266 118.649 233.942 118.97C233.617 119.29 233.177 119.47 232.718 119.47H220.571C220.112 119.47 219.672 119.29 219.348 118.969C219.023 118.649 218.841 118.214 218.841 117.76V76.3916C218.841 75.9381 219.023 75.5031 219.348 75.1824C219.672 74.8617 220.112 74.6815 220.571 74.6815H228.216C228.54 74.6815 228.858 74.7713 229.133 74.941C229.408 75.1106 229.629 75.3531 229.772 75.6409L230.669 77.4564C230.786 77.6918 230.955 77.8977 231.165 78.0581C231.374 78.2185 231.619 78.3292 231.878 78.3816C232.138 78.4339 232.407 78.4267 232.663 78.3602C232.92 78.2938 233.157 78.1701 233.357 77.9985C236.236 75.5035 239.702 74.4324 244.22 74.4324ZM38.1603 50.1085H42.424C42.883 50.1085 43.3233 50.2887 43.6479 50.6094C43.9725 50.9301 44.1549 51.3651 44.1549 51.8186V61.9105C44.1549 62.364 43.9725 62.799 43.6479 63.1197C43.3233 63.4404 42.883 63.6206 42.424 63.6206H33.409C23.3878 63.6206 17.2974 57.5657 17.2974 47.6089V32.3947C17.2974 31.9411 17.115 31.5062 16.7904 31.1855C16.4658 30.8648 16.0255 30.6846 15.5665 30.6846H10.7287C10.2696 30.6846 9.82936 30.5044 9.50476 30.1837C9.18015 29.863 8.99779 29.428 8.99779 28.9745V27.7643C8.99779 27.3288 9.16569 26.9104 9.46744 26.5935L28.7921 6.2729C28.954 6.10263 29.1495 5.96693 29.3665 5.87419C29.5836 5.78144 29.8175 5.73361 30.054 5.73364H30.7544C31.2134 5.73364 31.6537 5.91382 31.9783 6.23453C32.3029 6.55523 32.4853 6.9902 32.4853 7.44374V17.1218C32.4853 17.5753 32.6676 18.0103 32.9922 18.331C33.3168 18.6517 33.7571 18.8319 34.2162 18.8319H42.1719C42.6309 18.8319 43.0712 19.0121 43.3958 19.3328C43.7204 19.6535 43.9027 20.0884 43.9027 20.542V28.9745C43.9027 29.428 43.7204 29.863 43.3958 30.1837C43.0712 30.5044 42.6309 30.6846 42.1719 30.6846H34.6362C34.1771 30.6846 33.7369 30.8648 33.4123 31.1855C33.0877 31.5062 32.9053 31.9411 32.9053 32.3947V44.9588C32.9053 48.1704 34.8652 50.1085 38.1603 50.1085ZM184.342 18.6101L205.576 30.7228C205.927 30.9227 206.219 31.2104 206.422 31.5571C206.624 31.9037 206.731 32.297 206.731 32.6974C206.731 33.0977 206.624 33.4911 206.422 33.8377C206.219 34.1843 205.927 34.4721 205.576 34.672L184.342 46.7841C183.641 47.1843 182.845 47.395 182.035 47.395C181.224 47.395 180.428 47.1843 179.727 46.7841L158.492 34.672C158.142 34.4716 157.851 34.1837 157.648 33.8371C157.446 33.4905 157.34 33.0975 157.34 32.6974C157.34 32.2973 157.446 31.9042 157.648 31.5576C157.851 31.2111 158.142 30.9232 158.492 30.7228L179.727 18.6101C180.428 18.2099 181.224 17.9992 182.035 17.9992C182.845 17.9992 183.641 18.2099 184.342 18.6101Z" fill="#3F3F46"/>
<path fill-rule="evenodd" clip-rule="evenodd" d="M176.58 32.2321C179.769 33.2901 183.348 33.818 186.62 33.3705C186.66 33.365 186.7 33.3697 186.737 33.3842C187.662 33.7448 188.633 33.9751 189.623 34.0682C190.202 34.1224 190.795 34.1303 191.371 34.0528C191.422 34.0461 191.473 34.0561 191.517 34.0813L192.024 34.3703C192.059 34.3903 192.088 34.4191 192.109 34.4538C192.129 34.4885 192.139 34.5278 192.139 34.5678C192.139 34.6079 192.129 34.6472 192.109 34.6819C192.088 34.7166 192.059 34.7453 192.024 34.7653L187.051 37.6018C187.016 37.622 186.976 37.6325 186.935 37.6325C186.895 37.6325 186.855 37.622 186.82 37.6018L186.314 37.3128C186.265 37.2852 186.229 37.2413 186.211 37.1891C186.193 37.1369 186.195 37.08 186.216 37.029C186.371 36.6539 186.313 36.2617 186.148 35.8912C185.968 35.4893 185.663 35.1125 185.334 34.8018C185.271 34.7433 185.207 34.6859 185.143 34.6297C185.084 34.7628 185.014 34.8909 184.934 35.0128C184.516 35.6495 183.833 36.118 183.026 36.419C181.849 36.8574 180.406 36.9395 179.176 36.6915C177.852 36.4247 176.688 35.7281 176.266 34.6986C176.043 34.1548 176.036 33.5734 176.162 33.0154C176.208 32.8158 176.247 32.6146 176.279 32.4128C176.284 32.3802 176.297 32.3491 176.316 32.3216C176.334 32.2942 176.359 32.2711 176.388 32.254C176.416 32.2368 176.448 32.226 176.482 32.2222C176.515 32.2184 176.549 32.2218 176.58 32.2321ZM176.507 32.4482C176.474 32.6551 176.434 32.8609 176.387 33.0649C176.271 33.578 176.275 34.1127 176.48 34.6126C176.876 35.5794 177.98 36.2178 179.222 36.468C181.205 36.8676 183.758 36.3842 184.74 34.889C184.87 34.6914 184.97 34.4759 185.036 34.2495C185.197 34.3726 185.35 34.502 185.493 34.6371C186.194 35.2995 186.789 36.248 186.429 37.115L186.936 37.4046L191.909 34.5676L191.402 34.2785C190.809 34.3589 190.198 34.3509 189.602 34.2951C188.59 34.2004 187.597 33.9651 186.652 33.5962C183.345 34.0488 179.728 33.517 176.507 32.4482Z" fill="black" fill-opacity="0.02"/>
<path fill-rule="evenodd" clip-rule="evenodd" d="M188.632 33.5801C188.968 33.6458 189.308 33.6953 189.652 33.7273C190.204 33.7787 190.77 33.7877 191.319 33.7135C191.446 33.6964 191.575 33.7214 191.686 33.7846L192.192 34.0736C192.371 34.1755 192.481 34.3636 192.481 34.5672C192.481 34.771 192.371 34.9591 192.192 35.061L187.221 37.8975C187.042 37.9993 186.822 37.9993 186.644 37.8973L186.138 37.608C185.888 37.4653 185.783 37.1622 185.893 36.8984C186.012 36.6115 185.955 36.3123 185.829 36.0288C185.692 35.7235 185.473 35.4357 185.23 35.1851L185.222 35.1984C184.766 35.8928 184.027 36.4104 183.147 36.7383C181.912 37.1986 180.398 37.2861 179.106 37.0258C177.661 36.7345 176.407 35.9507 175.946 34.8262C175.697 34.2168 175.684 33.5653 175.826 32.9401C176.048 31.9591 176.125 30.9444 175.863 29.9635C175.72 29.4303 175.469 28.9242 175.173 28.431C175.057 28.2376 175.067 27.9948 175.199 27.8112C175.33 27.6276 175.558 27.5375 175.781 27.581C176.77 27.7739 177.768 27.9275 178.782 28.0109C180.601 28.1605 182.44 28.1161 184.257 27.9819C185.424 27.8958 186.626 27.9161 187.763 28.1521C188.523 28.3102 189.265 28.5724 189.862 28.9746C190.193 29.1972 190.477 29.4631 190.684 29.7617C190.867 30.0246 190.99 30.3119 191.043 30.6074C191.085 30.8389 191.085 31.0738 191.043 31.3053C190.931 31.9184 190.559 32.4379 190.02 32.8504C189.628 33.1503 189.144 33.3935 188.632 33.5801ZM184.3 28.5503C182.452 28.6868 180.583 28.731 178.734 28.5789C177.698 28.4937 176.679 28.3372 175.67 28.1402C175.993 28.6797 176.264 29.2346 176.42 29.8178C176.706 30.8878 176.631 31.9946 176.388 33.0648C176.272 33.5777 176.276 34.1124 176.481 34.6123C176.877 35.5787 177.98 36.217 179.222 36.4672C181.204 36.8668 183.756 36.3834 184.738 34.8883C184.871 34.6857 184.97 34.4703 185.034 34.2488C185.195 34.3721 185.348 34.5013 185.491 34.6367C186.192 35.2989 186.786 36.2474 186.426 37.1146L186.933 37.4038L191.904 34.5672L191.397 34.2782C190.805 34.3584 190.194 34.3502 189.598 34.2948C188.47 34.1897 187.368 33.9056 186.375 33.4839C186.689 33.4541 187.002 33.4112 187.31 33.3523C188.697 33.0873 190.258 32.3979 190.475 31.2042C190.505 31.0396 190.505 30.8726 190.476 30.708C190.436 30.4898 190.344 30.2785 190.209 30.0844C190.04 29.8413 189.806 29.6269 189.537 29.4456C189 29.0833 188.329 28.8523 187.644 28.71C186.56 28.4848 185.413 28.4682 184.3 28.5503Z" fill="black" fill-opacity="0.1"/>
<path fill-rule="evenodd" clip-rule="evenodd" d="M184.3 28.5503C182.452 28.6867 180.583 28.7309 178.734 28.5789C177.698 28.4937 176.679 28.3371 175.669 28.1401C175.993 28.6796 176.264 29.2345 176.42 29.8178C176.706 30.8877 176.631 31.9946 176.388 33.0647C176.272 33.5776 176.276 34.1124 176.481 34.6122C176.877 35.5787 177.98 36.2169 179.221 36.4672C181.204 36.8667 183.756 36.3833 184.738 34.8882C184.871 34.6856 184.97 34.4702 185.034 34.2487C185.195 34.372 185.348 34.5012 185.491 34.6366C186.191 35.2988 186.786 36.2473 186.426 37.1145L186.932 37.4038C187.761 36.931 191.075 35.04 191.904 34.5671C191.735 34.4708 191.566 34.3745 191.397 34.2781C190.804 34.3583 190.194 34.3502 189.598 34.2947C188.47 34.1896 187.368 33.9055 186.374 33.4839C186.689 33.454 187.002 33.4111 187.31 33.3522C188.697 33.0872 190.258 32.3978 190.475 31.2042C190.505 31.0395 190.505 30.8725 190.476 30.7079C190.436 30.4898 190.343 30.2784 190.209 30.0844C190.04 29.8412 189.806 29.6268 189.537 29.4455C188.999 29.0832 188.329 28.8522 187.644 28.7099C186.56 28.4848 185.413 28.4681 184.3 28.5503Z" fill="white" stroke="#2D2D2D" stroke-width="0.607401" stroke-miterlimit="2" stroke-linejoin="round"/>
<path fill-rule="evenodd" clip-rule="evenodd" d="M176.507 32.4482C179.728 33.5171 183.345 34.0489 186.652 33.5963C187.597 33.9652 188.59 34.2005 189.602 34.2952C190.198 34.351 190.809 34.359 191.402 34.2786L191.909 34.5676L186.936 37.4047L186.429 37.1151C186.789 36.2481 186.194 35.2996 185.493 34.6372C185.348 34.5004 185.195 34.371 185.037 34.2496C184.97 34.476 184.87 34.6915 184.74 34.8891C183.759 36.3843 181.205 36.8677 179.222 36.4681C177.98 36.2179 176.876 35.5795 176.48 34.6127C176.275 34.1128 176.271 33.578 176.387 33.065C176.434 32.8609 176.474 32.6552 176.507 32.4482Z" fill="black" fill-opacity="0.1"/>
</g>
</g>
<defs>
<linearGradient id="paint0_linear_45_416" x1="172.984" y1="34.1199" x2="198.658" y2="69.7456" gradientUnits="userSpaceOnUse">
<stop stop-color="#0403E5"/>
<stop offset="1" stop-color="#01EBFF"/>
</linearGradient>
<linearGradient id="paint1_linear_45_416" x1="205.313" y1="41.4459" x2="160.497" y2="41.4459" gradientUnits="userSpaceOnUse">
<stop stop-color="#0503E3" stop-opacity="0.8"/>
<stop offset="1" stop-color="#00EDFE" stop-opacity="0.8"/>
</linearGradient>
</defs>
</svg>
